%
M48
M72
T01C0.02362
T02C0.03150
T03C0.03200
T04C0.04000
T05C0.07480
%
T01
X33152Y31800
X15652Y44300
X42640Y57312
X43152Y89300
X38152Y96800
X45652Y129300
X100652Y176800
X105652Y181800
X158152Y136800
X140652Y121800
X170652Y61800
X175652Y51800
X180652Y41800
T02
X37916Y175166
X33191Y178316
X37916Y181465
X33191Y184615
X37916Y187765
T03
X87561Y161229
X87561Y151229
X87561Y141229
X87561Y131229
X87561Y121229
X87561Y111229
X87561Y101229
X87561Y91229
X87561Y81229
X87561Y71229
X87561Y61229
X87561Y51229
X87561Y41229
X87561Y31229
X97876Y16820
X107876Y16820
X117561Y31229
X117561Y41229
X117561Y51229
X117561Y61229
X117561Y71229
X117561Y81229
X117561Y91229
X117561Y101229
X117561Y111229
X117561Y121229
X117561Y131229
X117561Y141229
X117561Y151229
X117561Y161229
X135652Y159300
X135652Y149300
X151617Y150107
X151617Y160107
X167306Y169359
X146498Y190737
X136498Y190737
X118998Y188355
X113998Y195855
X108998Y188355
X167306Y129359
X143152Y81800
X133152Y81800
X68152Y51800
X68152Y41800
X22817Y26190
X22817Y66190
X123191Y15757
X163191Y15757
T04
X22640Y16249
X42640Y16249
X6400Y69792
X6400Y79792
X6400Y89792
X6400Y99792
X6400Y109792
X6400Y119792
X6400Y129792
X6400Y139792
X58998Y91367
X58998Y81367
X58998Y71367
X160298Y190658
X180298Y190658
X194628Y191485
X194628Y181485
X194628Y171485
X194628Y161485
X194628Y151485
X195317Y138158
X195317Y128158
X195317Y118158
X195317Y108158
X195317Y98158
X195317Y88158
X195317Y78158
X195317Y68158
X90829Y193276
X80829Y193276
X70829Y193276
X60829Y193276
X50829Y193276
T05
X17837Y195835
X17837Y167095
M30
