G75*
%MOIN*%
%OFA0B0*%
%FSLAX25Y25*%
%IPPOS*%
%LPD*%
%AMOC8*
5,1,8,0,0,1.08239X$1,22.5*
%
%ADD10C,0.00000*%
%ADD11C,0.00300*%
%ADD12C,0.01600*%
%ADD13C,0.01000*%
%ADD14C,0.00600*%
%ADD15C,0.00800*%
%ADD16R,0.02400X0.03400*%
%ADD17R,0.03400X0.02400*%
%ADD18C,0.00500*%
%ADD19C,0.00400*%
D10*
X0003152Y0004300D02*
X0003152Y0201150D01*
X0200002Y0201150D01*
X0200002Y0004300D01*
X0003152Y0004300D01*
D11*
X0021067Y0044450D02*
X0020099Y0045417D01*
X0023002Y0045417D01*
X0023002Y0044450D02*
X0023002Y0046385D01*
X0022518Y0047397D02*
X0020583Y0049331D01*
X0022518Y0049331D01*
X0023002Y0048848D01*
X0023002Y0047880D01*
X0022518Y0047397D01*
X0020583Y0047397D01*
X0020099Y0047880D01*
X0020099Y0048848D01*
X0020583Y0049331D01*
X0020099Y0050343D02*
X0023002Y0050343D01*
X0022034Y0050343D02*
X0021067Y0051794D01*
X0022034Y0050343D02*
X0023002Y0051794D01*
X0023146Y0069450D02*
X0021695Y0069450D01*
X0021695Y0072352D01*
X0023146Y0072352D01*
X0023630Y0071869D01*
X0023630Y0069934D01*
X0023146Y0069450D01*
X0020683Y0069450D02*
X0020683Y0072352D01*
X0018748Y0072352D02*
X0020683Y0069450D01*
X0018748Y0069450D02*
X0018748Y0072352D01*
X0017737Y0071869D02*
X0017253Y0072352D01*
X0016286Y0072352D01*
X0015802Y0071869D01*
X0015802Y0069934D01*
X0016286Y0069450D01*
X0017253Y0069450D01*
X0017737Y0069934D01*
X0017737Y0070901D01*
X0016769Y0070901D01*
X0016286Y0079450D02*
X0015802Y0079934D01*
X0016286Y0079450D02*
X0017253Y0079450D01*
X0017737Y0079934D01*
X0017737Y0080417D01*
X0017253Y0080901D01*
X0016769Y0080901D01*
X0017253Y0080901D02*
X0017737Y0081385D01*
X0017737Y0081869D01*
X0017253Y0082352D01*
X0016286Y0082352D01*
X0015802Y0081869D01*
X0018748Y0079934D02*
X0019232Y0079934D01*
X0019232Y0079450D01*
X0018748Y0079450D01*
X0018748Y0079934D01*
X0020222Y0079934D02*
X0020705Y0079450D01*
X0021673Y0079450D01*
X0022157Y0079934D01*
X0022157Y0080417D01*
X0021673Y0080901D01*
X0021189Y0080901D01*
X0021673Y0080901D02*
X0022157Y0081385D01*
X0022157Y0081869D01*
X0021673Y0082352D01*
X0020705Y0082352D01*
X0020222Y0081869D01*
X0023168Y0082352D02*
X0023168Y0080417D01*
X0024136Y0079450D01*
X0025103Y0080417D01*
X0025103Y0082352D01*
X0020200Y0089450D02*
X0020200Y0092352D01*
X0018748Y0090901D01*
X0020683Y0090901D01*
X0017737Y0090901D02*
X0015802Y0090901D01*
X0015802Y0091385D02*
X0016769Y0092352D01*
X0017737Y0091385D01*
X0017737Y0089450D01*
X0015802Y0089450D02*
X0015802Y0091385D01*
X0015802Y0099450D02*
X0017253Y0099450D01*
X0017737Y0099934D01*
X0017737Y0100417D01*
X0017253Y0100901D01*
X0015802Y0100901D01*
X0015802Y0099450D02*
X0015802Y0102352D01*
X0017253Y0102352D01*
X0017737Y0101869D01*
X0017737Y0101385D01*
X0017253Y0100901D01*
X0018748Y0100901D02*
X0020200Y0102352D01*
X0020200Y0099450D01*
X0020683Y0100901D02*
X0018748Y0100901D01*
X0019232Y0109450D02*
X0018748Y0109934D01*
X0019232Y0109450D02*
X0020200Y0109450D01*
X0020683Y0109934D01*
X0020683Y0110417D01*
X0020200Y0110901D01*
X0019716Y0110901D01*
X0020200Y0110901D02*
X0020683Y0111385D01*
X0020683Y0111869D01*
X0020200Y0112352D01*
X0019232Y0112352D01*
X0018748Y0111869D01*
X0017737Y0111869D02*
X0017737Y0111385D01*
X0017253Y0110901D01*
X0015802Y0110901D01*
X0015802Y0109450D02*
X0017253Y0109450D01*
X0017737Y0109934D01*
X0017737Y0110417D01*
X0017253Y0110901D01*
X0017737Y0111869D02*
X0017253Y0112352D01*
X0015802Y0112352D01*
X0015802Y0109450D01*
X0015802Y0119450D02*
X0017253Y0119450D01*
X0017737Y0119934D01*
X0017737Y0120417D01*
X0017253Y0120901D01*
X0015802Y0120901D01*
X0015802Y0119450D02*
X0015802Y0122352D01*
X0017253Y0122352D01*
X0017737Y0121869D01*
X0017737Y0121385D01*
X0017253Y0120901D01*
X0018748Y0121869D02*
X0019232Y0122352D01*
X0020200Y0122352D01*
X0020683Y0121869D01*
X0020683Y0121385D01*
X0018748Y0119450D01*
X0020683Y0119450D01*
X0020683Y0129450D02*
X0018748Y0129450D01*
X0019716Y0129450D02*
X0019716Y0132352D01*
X0018748Y0131385D01*
X0017737Y0131385D02*
X0017737Y0129450D01*
X0017737Y0130901D02*
X0015802Y0130901D01*
X0015802Y0131385D02*
X0016769Y0132352D01*
X0017737Y0131385D01*
X0015802Y0131385D02*
X0015802Y0129450D01*
X0015802Y0139450D02*
X0015802Y0141385D01*
X0016769Y0142352D01*
X0017737Y0141385D01*
X0017737Y0139450D01*
X0018748Y0139934D02*
X0018748Y0141869D01*
X0019232Y0142352D01*
X0020200Y0142352D01*
X0020683Y0141869D01*
X0018748Y0139934D01*
X0019232Y0139450D01*
X0020200Y0139450D01*
X0020683Y0139934D01*
X0020683Y0141869D01*
X0017737Y0140901D02*
X0015802Y0140901D01*
X0048567Y0087725D02*
X0050502Y0085790D01*
X0050502Y0087725D01*
X0048567Y0087725D02*
X0048567Y0085790D01*
X0049051Y0084778D02*
X0049051Y0082843D01*
X0050502Y0082843D02*
X0047599Y0082843D01*
X0047599Y0081831D02*
X0050502Y0081831D01*
X0050502Y0079897D02*
X0047599Y0079897D01*
X0048567Y0080864D01*
X0047599Y0081831D01*
X0048083Y0078885D02*
X0048567Y0078885D01*
X0049051Y0078401D01*
X0049051Y0077434D01*
X0048567Y0076950D01*
X0048083Y0076950D01*
X0047599Y0077434D01*
X0047599Y0078401D01*
X0048083Y0078885D01*
X0049051Y0078401D02*
X0049534Y0078885D01*
X0050018Y0078885D01*
X0050502Y0078401D01*
X0050502Y0077434D01*
X0050018Y0076950D01*
X0049534Y0076950D01*
X0049051Y0077434D01*
X0050502Y0084778D02*
X0047599Y0084778D01*
X0057599Y0057144D02*
X0057599Y0055209D01*
X0060502Y0055209D01*
X0060502Y0054198D02*
X0058567Y0054198D01*
X0059051Y0055209D02*
X0059051Y0056177D01*
X0060502Y0054198D02*
X0060502Y0052747D01*
X0060018Y0052263D01*
X0058567Y0052263D01*
X0060502Y0048305D02*
X0060502Y0046370D01*
X0060502Y0047337D02*
X0057599Y0047337D01*
X0058567Y0046370D01*
X0060018Y0045380D02*
X0060018Y0044897D01*
X0060502Y0044897D01*
X0060502Y0045380D01*
X0060018Y0045380D01*
X0060018Y0043885D02*
X0058083Y0043885D01*
X0060018Y0041950D01*
X0060502Y0042434D01*
X0060502Y0043401D01*
X0060018Y0043885D01*
X0058083Y0043885D02*
X0057599Y0043401D01*
X0057599Y0042434D01*
X0058083Y0041950D01*
X0060018Y0041950D01*
X0059195Y0017352D02*
X0059195Y0014450D01*
X0061130Y0014450D01*
X0062142Y0014450D02*
X0062142Y0017352D01*
X0063593Y0017352D01*
X0064077Y0016869D01*
X0064077Y0015901D01*
X0063593Y0015417D01*
X0062142Y0015417D01*
X0063109Y0015417D02*
X0064077Y0014450D01*
X0061130Y0017352D02*
X0059195Y0017352D01*
X0058183Y0016869D02*
X0057700Y0017352D01*
X0056732Y0017352D01*
X0056248Y0016869D01*
X0056248Y0016385D01*
X0056732Y0015901D01*
X0057700Y0015901D01*
X0058183Y0015417D01*
X0058183Y0014934D01*
X0057700Y0014450D01*
X0056732Y0014450D01*
X0056248Y0014934D01*
X0055237Y0014934D02*
X0055237Y0017352D01*
X0053302Y0017352D02*
X0053302Y0014934D01*
X0053786Y0014450D01*
X0054753Y0014450D01*
X0055237Y0014934D01*
X0059195Y0015901D02*
X0060162Y0015901D01*
X0140802Y0014934D02*
X0141286Y0014450D01*
X0142253Y0014450D01*
X0142737Y0014934D01*
X0142737Y0015417D01*
X0142253Y0015901D01*
X0141769Y0015901D01*
X0142253Y0015901D02*
X0142737Y0016385D01*
X0142737Y0016869D01*
X0142253Y0017352D01*
X0141286Y0017352D01*
X0140802Y0016869D01*
X0143748Y0016869D02*
X0144232Y0017352D01*
X0145200Y0017352D01*
X0145683Y0016869D01*
X0145683Y0016385D01*
X0145200Y0015901D01*
X0145683Y0015417D01*
X0145683Y0014934D01*
X0145200Y0014450D01*
X0144232Y0014450D01*
X0143748Y0014934D01*
X0144716Y0015901D02*
X0145200Y0015901D01*
X0146695Y0014934D02*
X0146695Y0016869D01*
X0147179Y0017352D01*
X0148146Y0017352D01*
X0148630Y0016869D01*
X0146695Y0014934D01*
X0147179Y0014450D01*
X0148146Y0014450D01*
X0148630Y0014934D01*
X0148630Y0016869D01*
X0160802Y0009369D02*
X0160802Y0007434D01*
X0161286Y0006950D01*
X0162253Y0006950D01*
X0162737Y0007434D01*
X0163748Y0007434D02*
X0164232Y0006950D01*
X0165200Y0006950D01*
X0165683Y0007434D01*
X0165683Y0008401D01*
X0165200Y0008885D01*
X0164232Y0008885D01*
X0163748Y0008401D01*
X0163748Y0007434D01*
X0162737Y0009369D02*
X0162253Y0009852D01*
X0161286Y0009852D01*
X0160802Y0009369D01*
X0166695Y0008885D02*
X0166695Y0006950D01*
X0166695Y0008885D02*
X0168146Y0008885D01*
X0168630Y0008401D01*
X0168630Y0006950D01*
X0169642Y0006950D02*
X0169642Y0008885D01*
X0171093Y0008885D01*
X0171577Y0008401D01*
X0171577Y0006950D01*
X0172588Y0007434D02*
X0172588Y0008401D01*
X0173072Y0008885D01*
X0174039Y0008885D01*
X0174523Y0008401D01*
X0174523Y0007434D01*
X0174039Y0006950D01*
X0173072Y0006950D01*
X0172588Y0007434D01*
X0175535Y0007917D02*
X0176502Y0008885D01*
X0176986Y0008885D01*
X0175535Y0008885D02*
X0175535Y0006950D01*
X0180937Y0006950D02*
X0180937Y0009852D01*
X0181904Y0008885D01*
X0182871Y0009852D01*
X0182871Y0006950D01*
X0183883Y0007434D02*
X0184367Y0006950D01*
X0185818Y0006950D01*
X0185818Y0008885D01*
X0186830Y0008885D02*
X0186830Y0006950D01*
X0186830Y0007917D02*
X0187797Y0008885D01*
X0188281Y0008885D01*
X0189285Y0008885D02*
X0189285Y0006950D01*
X0189285Y0007917D02*
X0190252Y0008885D01*
X0190736Y0008885D01*
X0192224Y0008885D02*
X0193192Y0008885D01*
X0193675Y0008401D01*
X0193675Y0006950D01*
X0192224Y0006950D01*
X0191740Y0007434D01*
X0192224Y0007917D01*
X0193675Y0007917D01*
X0194687Y0007434D02*
X0195171Y0006950D01*
X0196622Y0006950D01*
X0196622Y0006466D02*
X0196138Y0005983D01*
X0195654Y0005983D01*
X0196622Y0006466D02*
X0196622Y0008885D01*
X0194687Y0008885D02*
X0194687Y0007434D01*
X0183883Y0007434D02*
X0183883Y0008885D01*
X0183748Y0066950D02*
X0183748Y0069852D01*
X0185683Y0066950D01*
X0185683Y0069852D01*
X0186695Y0069852D02*
X0186695Y0066950D01*
X0188146Y0066950D01*
X0188630Y0067434D01*
X0188630Y0069369D01*
X0188146Y0069852D01*
X0186695Y0069852D01*
X0182737Y0069369D02*
X0182253Y0069852D01*
X0181286Y0069852D01*
X0180802Y0069369D01*
X0180802Y0067434D01*
X0181286Y0066950D01*
X0182253Y0066950D01*
X0182737Y0067434D01*
X0182737Y0068401D01*
X0181769Y0068401D01*
X0183786Y0076950D02*
X0183302Y0077434D01*
X0183786Y0076950D02*
X0184753Y0076950D01*
X0185237Y0077434D01*
X0185237Y0078401D01*
X0184753Y0078885D01*
X0184269Y0078885D01*
X0183302Y0078401D01*
X0183302Y0079852D01*
X0185237Y0079852D01*
X0186248Y0079852D02*
X0186248Y0077917D01*
X0187216Y0076950D01*
X0188183Y0077917D01*
X0188183Y0079852D01*
X0186248Y0086950D02*
X0186248Y0087434D01*
X0188183Y0089369D01*
X0188183Y0089852D01*
X0186248Y0089852D01*
X0185237Y0089369D02*
X0185237Y0088885D01*
X0184753Y0088401D01*
X0183302Y0088401D01*
X0183302Y0086950D02*
X0184753Y0086950D01*
X0185237Y0087434D01*
X0185237Y0087917D01*
X0184753Y0088401D01*
X0185237Y0089369D02*
X0184753Y0089852D01*
X0183302Y0089852D01*
X0183302Y0086950D01*
X0183302Y0096950D02*
X0184753Y0096950D01*
X0185237Y0097434D01*
X0185237Y0097917D01*
X0184753Y0098401D01*
X0183302Y0098401D01*
X0183302Y0096950D02*
X0183302Y0099852D01*
X0184753Y0099852D01*
X0185237Y0099369D01*
X0185237Y0098885D01*
X0184753Y0098401D01*
X0186248Y0097917D02*
X0186732Y0098401D01*
X0187700Y0098401D01*
X0188183Y0097917D01*
X0188183Y0097434D01*
X0187700Y0096950D01*
X0186732Y0096950D01*
X0186248Y0097434D01*
X0186248Y0097917D01*
X0186732Y0098401D02*
X0186248Y0098885D01*
X0186248Y0099369D01*
X0186732Y0099852D01*
X0187700Y0099852D01*
X0188183Y0099369D01*
X0188183Y0098885D01*
X0187700Y0098401D01*
X0187700Y0106950D02*
X0188183Y0107434D01*
X0188183Y0109369D01*
X0187700Y0109852D01*
X0186732Y0109852D01*
X0186248Y0109369D01*
X0186248Y0108885D01*
X0186732Y0108401D01*
X0188183Y0108401D01*
X0187700Y0106950D02*
X0186732Y0106950D01*
X0186248Y0107434D01*
X0185237Y0107434D02*
X0184753Y0106950D01*
X0183302Y0106950D01*
X0183302Y0109852D01*
X0184753Y0109852D01*
X0185237Y0109369D01*
X0185237Y0108885D01*
X0184753Y0108401D01*
X0183302Y0108401D01*
X0184753Y0108401D02*
X0185237Y0107917D01*
X0185237Y0107434D01*
X0185683Y0116950D02*
X0183748Y0116950D01*
X0184716Y0116950D02*
X0184716Y0119852D01*
X0183748Y0118885D01*
X0182737Y0118885D02*
X0182253Y0118401D01*
X0180802Y0118401D01*
X0180802Y0116950D02*
X0182253Y0116950D01*
X0182737Y0117434D01*
X0182737Y0117917D01*
X0182253Y0118401D01*
X0182737Y0118885D02*
X0182737Y0119369D01*
X0182253Y0119852D01*
X0180802Y0119852D01*
X0180802Y0116950D01*
X0186695Y0117434D02*
X0187179Y0116950D01*
X0188146Y0116950D01*
X0188630Y0117434D01*
X0188630Y0117917D01*
X0188146Y0118401D01*
X0187662Y0118401D01*
X0188146Y0118401D02*
X0188630Y0118885D01*
X0188630Y0119369D01*
X0188146Y0119852D01*
X0187179Y0119852D01*
X0186695Y0119369D01*
X0185683Y0126950D02*
X0183748Y0126950D01*
X0184716Y0126950D02*
X0184716Y0129852D01*
X0183748Y0128885D01*
X0182737Y0128885D02*
X0182253Y0128401D01*
X0180802Y0128401D01*
X0180802Y0126950D02*
X0182253Y0126950D01*
X0182737Y0127434D01*
X0182737Y0127917D01*
X0182253Y0128401D01*
X0182737Y0128885D02*
X0182737Y0129369D01*
X0182253Y0129852D01*
X0180802Y0129852D01*
X0180802Y0126950D01*
X0186695Y0128401D02*
X0188630Y0128401D01*
X0188146Y0126950D02*
X0188146Y0129852D01*
X0186695Y0128401D01*
X0187179Y0136950D02*
X0186695Y0137434D01*
X0187179Y0136950D02*
X0188146Y0136950D01*
X0188630Y0137434D01*
X0188630Y0138401D01*
X0188146Y0138885D01*
X0187662Y0138885D01*
X0186695Y0138401D01*
X0186695Y0139852D01*
X0188630Y0139852D01*
X0184716Y0139852D02*
X0184716Y0136950D01*
X0185683Y0136950D02*
X0183748Y0136950D01*
X0182737Y0137434D02*
X0182253Y0136950D01*
X0180802Y0136950D01*
X0180802Y0139852D01*
X0182253Y0139852D01*
X0182737Y0139369D01*
X0182737Y0138885D01*
X0182253Y0138401D01*
X0180802Y0138401D01*
X0182253Y0138401D02*
X0182737Y0137917D01*
X0182737Y0137434D01*
X0183748Y0138885D02*
X0184716Y0139852D01*
X0168002Y0146950D02*
X0168002Y0148885D01*
X0168002Y0147917D02*
X0165099Y0147917D01*
X0166067Y0146950D01*
X0165583Y0149897D02*
X0165099Y0150380D01*
X0165099Y0151348D01*
X0165583Y0151831D01*
X0167518Y0149897D01*
X0168002Y0150380D01*
X0168002Y0151348D01*
X0167518Y0151831D01*
X0165583Y0151831D01*
X0165099Y0152843D02*
X0168002Y0152843D01*
X0167034Y0152843D02*
X0166067Y0154294D01*
X0167034Y0152843D02*
X0168002Y0154294D01*
X0167518Y0149897D02*
X0165583Y0149897D01*
X0145502Y0149934D02*
X0145018Y0149450D01*
X0143083Y0151385D01*
X0145018Y0151385D01*
X0145502Y0150901D01*
X0145502Y0149934D01*
X0145018Y0149450D02*
X0143083Y0149450D01*
X0142599Y0149934D01*
X0142599Y0150901D01*
X0143083Y0151385D01*
X0145018Y0152397D02*
X0145018Y0152880D01*
X0145502Y0152880D01*
X0145502Y0152397D01*
X0145018Y0152397D01*
X0145502Y0153870D02*
X0145502Y0155805D01*
X0145502Y0154837D02*
X0142599Y0154837D01*
X0143567Y0153870D01*
X0143567Y0156816D02*
X0145018Y0156816D01*
X0145502Y0157300D01*
X0145502Y0158751D01*
X0143567Y0158751D01*
X0144051Y0159763D02*
X0144051Y0160730D01*
X0145502Y0159763D02*
X0142599Y0159763D01*
X0142599Y0161698D01*
X0128002Y0159763D02*
X0125099Y0159763D01*
X0125099Y0161698D01*
X0126551Y0160730D02*
X0126551Y0159763D01*
X0126067Y0158751D02*
X0128002Y0158751D01*
X0128002Y0157300D01*
X0127518Y0156816D01*
X0126067Y0156816D01*
X0128002Y0155805D02*
X0128002Y0153870D01*
X0128002Y0154837D02*
X0125099Y0154837D01*
X0126067Y0153870D01*
X0127518Y0152880D02*
X0127518Y0152397D01*
X0128002Y0152397D01*
X0128002Y0152880D01*
X0127518Y0152880D01*
X0127518Y0151385D02*
X0125583Y0151385D01*
X0127518Y0149450D01*
X0128002Y0149934D01*
X0128002Y0150901D01*
X0127518Y0151385D01*
X0125583Y0151385D02*
X0125099Y0150901D01*
X0125099Y0149934D01*
X0125583Y0149450D01*
X0127518Y0149450D01*
X0138786Y0179450D02*
X0138302Y0179934D01*
X0140237Y0181869D01*
X0140237Y0179934D01*
X0139753Y0179450D01*
X0138786Y0179450D01*
X0138302Y0179934D02*
X0138302Y0181869D01*
X0138786Y0182352D01*
X0139753Y0182352D01*
X0140237Y0181869D01*
X0141248Y0179934D02*
X0141732Y0179934D01*
X0141732Y0179450D01*
X0141248Y0179450D01*
X0141248Y0179934D01*
X0142722Y0179450D02*
X0144657Y0179450D01*
X0143689Y0179450D02*
X0143689Y0182352D01*
X0142722Y0181385D01*
X0145668Y0181385D02*
X0145668Y0179934D01*
X0146152Y0179450D01*
X0147603Y0179450D01*
X0147603Y0181385D01*
X0148615Y0180901D02*
X0149582Y0180901D01*
X0148615Y0179450D02*
X0148615Y0182352D01*
X0150550Y0182352D01*
X0163302Y0182352D02*
X0163302Y0179450D01*
X0163302Y0180417D02*
X0164753Y0180417D01*
X0165237Y0180901D01*
X0165237Y0181869D01*
X0164753Y0182352D01*
X0163302Y0182352D01*
X0164269Y0180417D02*
X0165237Y0179450D01*
X0166248Y0179450D02*
X0166248Y0182352D01*
X0168183Y0182352D01*
X0169195Y0181869D02*
X0169195Y0181385D01*
X0169679Y0180901D01*
X0170646Y0180901D01*
X0171130Y0180417D01*
X0171130Y0179934D01*
X0170646Y0179450D01*
X0169679Y0179450D01*
X0169195Y0179934D01*
X0168183Y0179450D02*
X0166248Y0179450D01*
X0166248Y0180901D02*
X0167216Y0180901D01*
X0169195Y0181869D02*
X0169679Y0182352D01*
X0170646Y0182352D01*
X0171130Y0181869D01*
X0172142Y0182352D02*
X0172142Y0179450D01*
X0174077Y0179450D01*
X0173109Y0180901D02*
X0172142Y0180901D01*
X0172142Y0182352D02*
X0174077Y0182352D01*
X0175088Y0182352D02*
X0177023Y0182352D01*
X0176056Y0182352D02*
X0176056Y0179450D01*
X0161577Y0089852D02*
X0159642Y0089852D01*
X0159642Y0086950D01*
X0158630Y0086950D02*
X0158630Y0088885D01*
X0159642Y0088401D02*
X0160609Y0088401D01*
X0158630Y0086950D02*
X0157179Y0086950D01*
X0156695Y0087434D01*
X0156695Y0088885D01*
X0155683Y0089369D02*
X0153748Y0087434D01*
X0154232Y0086950D01*
X0155200Y0086950D01*
X0155683Y0087434D01*
X0155683Y0089369D01*
X0155200Y0089852D01*
X0154232Y0089852D01*
X0153748Y0089369D01*
X0153748Y0087434D01*
X0152737Y0086950D02*
X0150802Y0086950D01*
X0151769Y0086950D02*
X0151769Y0089852D01*
X0150802Y0088885D01*
D12*
X0180652Y0171800D02*
X0183152Y0176800D01*
X0185652Y0171800D01*
X0180652Y0171800D01*
X0180824Y0172144D02*
X0185480Y0172144D01*
X0184681Y0173742D02*
X0181623Y0173742D01*
X0182422Y0175341D02*
X0183882Y0175341D01*
D13*
X0154617Y0156107D02*
X0151617Y0156107D01*
X0148617Y0156107D01*
X0148617Y0154107D02*
X0151617Y0154107D01*
X0154617Y0154107D01*
X0138652Y0153300D02*
X0135652Y0153300D01*
X0132652Y0153300D01*
X0132652Y0155300D02*
X0135652Y0155300D01*
X0138652Y0155300D01*
X0140498Y0187737D02*
X0140498Y0190737D01*
X0140498Y0193737D01*
X0142498Y0193737D02*
X0142498Y0190737D01*
X0142498Y0187737D01*
X0140652Y0064300D02*
X0133152Y0064300D01*
X0133152Y0029300D01*
X0140652Y0029300D01*
X0140652Y0034300D01*
X0138152Y0039300D01*
X0138152Y0056800D01*
X0148152Y0029300D01*
X0155652Y0029300D01*
X0155652Y0064300D01*
X0148152Y0064300D01*
X0148152Y0059300D01*
X0150652Y0054300D01*
X0150652Y0036800D01*
X0140652Y0064300D01*
X0133152Y0064300D01*
X0133152Y0029300D01*
X0140652Y0029300D01*
X0140652Y0030261D02*
X0133152Y0030261D01*
X0133152Y0031260D02*
X0140652Y0031260D01*
X0140652Y0032258D02*
X0133152Y0032258D01*
X0133152Y0033257D02*
X0140652Y0033257D01*
X0140652Y0034255D02*
X0133152Y0034255D01*
X0133152Y0035254D02*
X0140175Y0035254D01*
X0139676Y0036252D02*
X0133152Y0036252D01*
X0133152Y0037251D02*
X0139177Y0037251D01*
X0138677Y0038249D02*
X0133152Y0038249D01*
X0133152Y0039248D02*
X0138178Y0039248D01*
X0138152Y0040246D02*
X0133152Y0040246D01*
X0133152Y0041245D02*
X0138152Y0041245D01*
X0138152Y0042243D02*
X0133152Y0042243D01*
X0133152Y0043242D02*
X0138152Y0043242D01*
X0138152Y0044240D02*
X0133152Y0044240D01*
X0133152Y0045239D02*
X0138152Y0045239D01*
X0138152Y0046237D02*
X0133152Y0046237D01*
X0133152Y0047236D02*
X0138152Y0047236D01*
X0138152Y0048234D02*
X0133152Y0048234D01*
X0133152Y0049233D02*
X0138152Y0049233D01*
X0138152Y0050232D02*
X0133152Y0050232D01*
X0133152Y0051230D02*
X0138152Y0051230D01*
X0138152Y0052229D02*
X0133152Y0052229D01*
X0133152Y0053227D02*
X0138152Y0053227D01*
X0138152Y0054226D02*
X0133152Y0054226D01*
X0133152Y0055224D02*
X0138152Y0055224D01*
X0138725Y0055224D02*
X0143952Y0055224D01*
X0143589Y0056223D02*
X0138362Y0056223D01*
X0138152Y0056223D02*
X0133152Y0056223D01*
X0133152Y0057221D02*
X0143226Y0057221D01*
X0142863Y0058220D02*
X0133152Y0058220D01*
X0133152Y0059218D02*
X0142500Y0059218D01*
X0142137Y0060217D02*
X0133152Y0060217D01*
X0133152Y0061215D02*
X0141774Y0061215D01*
X0141411Y0062214D02*
X0133152Y0062214D01*
X0133152Y0063212D02*
X0141048Y0063212D01*
X0140684Y0064211D02*
X0133152Y0064211D01*
X0139088Y0054226D02*
X0144315Y0054226D01*
X0144678Y0053227D02*
X0139451Y0053227D01*
X0139814Y0052229D02*
X0145042Y0052229D01*
X0145405Y0051230D02*
X0140177Y0051230D01*
X0140541Y0050232D02*
X0145768Y0050232D01*
X0146131Y0049233D02*
X0140904Y0049233D01*
X0141267Y0048234D02*
X0146494Y0048234D01*
X0146857Y0047236D02*
X0141630Y0047236D01*
X0141993Y0046237D02*
X0147220Y0046237D01*
X0147583Y0045239D02*
X0142356Y0045239D01*
X0142719Y0044240D02*
X0147946Y0044240D01*
X0148309Y0043242D02*
X0143082Y0043242D01*
X0143445Y0042243D02*
X0148673Y0042243D01*
X0149036Y0041245D02*
X0143808Y0041245D01*
X0144171Y0040246D02*
X0149399Y0040246D01*
X0149762Y0039248D02*
X0144535Y0039248D01*
X0144898Y0038249D02*
X0150125Y0038249D01*
X0150652Y0038249D02*
X0155652Y0038249D01*
X0155652Y0037251D02*
X0150652Y0037251D01*
X0150488Y0037251D02*
X0145261Y0037251D01*
X0145624Y0036252D02*
X0155652Y0036252D01*
X0155652Y0035254D02*
X0145987Y0035254D01*
X0146350Y0034255D02*
X0155652Y0034255D01*
X0155652Y0033257D02*
X0146713Y0033257D01*
X0147076Y0032258D02*
X0155652Y0032258D01*
X0155652Y0031260D02*
X0147439Y0031260D01*
X0147802Y0030261D02*
X0155652Y0030261D01*
X0155652Y0029300D02*
X0148152Y0029300D01*
X0155652Y0029300D02*
X0155652Y0064300D01*
X0148152Y0064300D01*
X0148152Y0064211D02*
X0155652Y0064211D01*
X0155652Y0063212D02*
X0148152Y0063212D01*
X0148152Y0062214D02*
X0155652Y0062214D01*
X0155652Y0061215D02*
X0148152Y0061215D01*
X0148152Y0060217D02*
X0155652Y0060217D01*
X0155652Y0059218D02*
X0148193Y0059218D01*
X0148692Y0058220D02*
X0155652Y0058220D01*
X0155652Y0057221D02*
X0149191Y0057221D01*
X0149691Y0056223D02*
X0155652Y0056223D01*
X0155652Y0055224D02*
X0150190Y0055224D01*
X0150652Y0054226D02*
X0155652Y0054226D01*
X0155652Y0053227D02*
X0150652Y0053227D01*
X0150652Y0052229D02*
X0155652Y0052229D01*
X0155652Y0051230D02*
X0150652Y0051230D01*
X0150652Y0050232D02*
X0155652Y0050232D01*
X0155652Y0049233D02*
X0150652Y0049233D01*
X0150652Y0048234D02*
X0155652Y0048234D01*
X0155652Y0047236D02*
X0150652Y0047236D01*
X0150652Y0046237D02*
X0155652Y0046237D01*
X0155652Y0045239D02*
X0150652Y0045239D01*
X0150652Y0044240D02*
X0155652Y0044240D01*
X0155652Y0043242D02*
X0150652Y0043242D01*
X0150652Y0042243D02*
X0155652Y0042243D01*
X0155652Y0041245D02*
X0150652Y0041245D01*
X0150652Y0040246D02*
X0155652Y0040246D01*
X0155652Y0039248D02*
X0150652Y0039248D01*
X0102877Y0024820D02*
X0102685Y0024818D01*
X0102493Y0024811D01*
X0102301Y0024799D01*
X0102109Y0024783D01*
X0101918Y0024762D01*
X0101728Y0024737D01*
X0101538Y0024707D01*
X0101349Y0024673D01*
X0101161Y0024634D01*
X0100974Y0024590D01*
X0100788Y0024542D01*
X0100603Y0024490D01*
X0100419Y0024433D01*
X0100237Y0024372D01*
X0100057Y0024306D01*
X0099878Y0024236D01*
X0099700Y0024162D01*
X0099525Y0024084D01*
X0099351Y0024001D01*
X0099180Y0023914D01*
X0099011Y0023824D01*
X0098844Y0023729D01*
X0098679Y0023630D01*
X0098516Y0023527D01*
X0098357Y0023420D01*
X0098199Y0023310D01*
X0098045Y0023196D01*
X0097893Y0023078D01*
X0097744Y0022956D01*
X0097598Y0022831D01*
X0097456Y0022703D01*
X0097316Y0022571D01*
X0097179Y0022436D01*
X0097046Y0022297D01*
X0096916Y0022156D01*
X0096790Y0022011D01*
X0096667Y0021863D01*
X0096548Y0021713D01*
X0096432Y0021559D01*
X0096320Y0021403D01*
X0096212Y0021244D01*
X0096107Y0021083D01*
X0096007Y0020919D01*
X0095911Y0020753D01*
X0095818Y0020585D01*
X0095930Y0012851D02*
X0096029Y0012682D01*
X0096133Y0012516D01*
X0096240Y0012352D01*
X0096351Y0012191D01*
X0096466Y0012033D01*
X0096585Y0011878D01*
X0096708Y0011725D01*
X0096834Y0011576D01*
X0096964Y0011430D01*
X0097098Y0011287D01*
X0097235Y0011147D01*
X0097375Y0011011D01*
X0097519Y0010878D01*
X0097666Y0010749D01*
X0097816Y0010623D01*
X0097969Y0010502D01*
X0098125Y0010383D01*
X0098284Y0010269D01*
X0098445Y0010159D01*
X0098610Y0010053D01*
X0098776Y0009950D01*
X0098946Y0009852D01*
X0099117Y0009758D01*
X0099291Y0009668D01*
X0099467Y0009583D01*
X0099645Y0009501D01*
X0099825Y0009425D01*
X0100007Y0009352D01*
X0100190Y0009284D01*
X0100375Y0009221D01*
X0100562Y0009162D01*
X0100750Y0009108D01*
X0100939Y0009058D01*
X0101129Y0009013D01*
X0101321Y0008973D01*
X0101513Y0008937D01*
X0101706Y0008906D01*
X0101900Y0008880D01*
X0102095Y0008858D01*
X0102290Y0008842D01*
X0102485Y0008830D01*
X0102681Y0008822D01*
X0102876Y0008820D01*
X0102877Y0008820D02*
X0103070Y0008822D01*
X0103263Y0008829D01*
X0103455Y0008841D01*
X0103648Y0008857D01*
X0103840Y0008878D01*
X0104031Y0008904D01*
X0104221Y0008934D01*
X0104411Y0008969D01*
X0104600Y0009008D01*
X0104788Y0009052D01*
X0104975Y0009100D01*
X0105161Y0009153D01*
X0105345Y0009210D01*
X0105528Y0009272D01*
X0105709Y0009338D01*
X0105889Y0009409D01*
X0106067Y0009483D01*
X0106243Y0009562D01*
X0106417Y0009646D01*
X0106589Y0009733D01*
X0106759Y0009825D01*
X0106926Y0009921D01*
X0107092Y0010020D01*
X0107255Y0010124D01*
X0107415Y0010231D01*
X0107572Y0010343D01*
X0107727Y0010458D01*
X0107879Y0010577D01*
X0108028Y0010699D01*
X0108175Y0010825D01*
X0108318Y0010955D01*
X0108458Y0011088D01*
X0108594Y0011224D01*
X0108728Y0011364D01*
X0108857Y0011506D01*
X0108984Y0011652D01*
X0109022Y0021942D02*
X0108895Y0022090D01*
X0108765Y0022235D01*
X0108632Y0022376D01*
X0108495Y0022515D01*
X0108355Y0022650D01*
X0108211Y0022781D01*
X0108064Y0022909D01*
X0107915Y0023034D01*
X0107762Y0023155D01*
X0107607Y0023272D01*
X0107448Y0023385D01*
X0107287Y0023494D01*
X0107123Y0023599D01*
X0106957Y0023701D01*
X0106788Y0023798D01*
X0106618Y0023891D01*
X0106444Y0023980D01*
X0106269Y0024065D01*
X0106092Y0024145D01*
X0105913Y0024221D01*
X0105732Y0024293D01*
X0105549Y0024360D01*
X0105365Y0024423D01*
X0105179Y0024481D01*
X0104992Y0024535D01*
X0104804Y0024584D01*
X0104614Y0024629D01*
X0104424Y0024669D01*
X0104232Y0024704D01*
X0104040Y0024735D01*
X0103847Y0024761D01*
X0103653Y0024782D01*
X0103459Y0024799D01*
X0103265Y0024811D01*
X0103071Y0024818D01*
X0102876Y0024820D01*
X0071152Y0045800D02*
X0068152Y0045800D01*
X0065152Y0045800D01*
X0065152Y0047800D02*
X0068152Y0047800D01*
X0071152Y0047800D01*
D14*
X0068152Y0047800D02*
X0068152Y0048300D01*
X0068152Y0045800D02*
X0068152Y0045300D01*
X0073152Y0038300D02*
X0073150Y0038240D01*
X0073145Y0038179D01*
X0073136Y0038120D01*
X0073123Y0038061D01*
X0073107Y0038002D01*
X0073087Y0037945D01*
X0073064Y0037890D01*
X0073037Y0037835D01*
X0073008Y0037783D01*
X0072975Y0037732D01*
X0072939Y0037683D01*
X0072901Y0037637D01*
X0072859Y0037593D01*
X0072815Y0037551D01*
X0072769Y0037513D01*
X0072720Y0037477D01*
X0072669Y0037444D01*
X0072617Y0037415D01*
X0072562Y0037388D01*
X0072507Y0037365D01*
X0072450Y0037345D01*
X0072391Y0037329D01*
X0072332Y0037316D01*
X0072273Y0037307D01*
X0072212Y0037302D01*
X0072152Y0037300D01*
X0064152Y0037300D01*
X0064092Y0037302D01*
X0064031Y0037307D01*
X0063972Y0037316D01*
X0063913Y0037329D01*
X0063854Y0037345D01*
X0063797Y0037365D01*
X0063742Y0037388D01*
X0063687Y0037415D01*
X0063635Y0037444D01*
X0063584Y0037477D01*
X0063535Y0037513D01*
X0063489Y0037551D01*
X0063445Y0037593D01*
X0063403Y0037637D01*
X0063365Y0037683D01*
X0063329Y0037732D01*
X0063296Y0037783D01*
X0063267Y0037835D01*
X0063240Y0037890D01*
X0063217Y0037945D01*
X0063197Y0038002D01*
X0063181Y0038061D01*
X0063168Y0038120D01*
X0063159Y0038179D01*
X0063154Y0038240D01*
X0063152Y0038300D01*
X0063152Y0055300D01*
X0063154Y0055360D01*
X0063159Y0055421D01*
X0063168Y0055480D01*
X0063181Y0055539D01*
X0063197Y0055598D01*
X0063217Y0055655D01*
X0063240Y0055710D01*
X0063267Y0055765D01*
X0063296Y0055817D01*
X0063329Y0055868D01*
X0063365Y0055917D01*
X0063403Y0055963D01*
X0063445Y0056007D01*
X0063489Y0056049D01*
X0063535Y0056087D01*
X0063584Y0056123D01*
X0063635Y0056156D01*
X0063687Y0056185D01*
X0063742Y0056212D01*
X0063797Y0056235D01*
X0063854Y0056255D01*
X0063913Y0056271D01*
X0063972Y0056284D01*
X0064031Y0056293D01*
X0064092Y0056298D01*
X0064152Y0056300D01*
X0072152Y0056300D01*
X0072212Y0056298D01*
X0072273Y0056293D01*
X0072332Y0056284D01*
X0072391Y0056271D01*
X0072450Y0056255D01*
X0072507Y0056235D01*
X0072562Y0056212D01*
X0072617Y0056185D01*
X0072669Y0056156D01*
X0072720Y0056123D01*
X0072769Y0056087D01*
X0072815Y0056049D01*
X0072859Y0056007D01*
X0072901Y0055963D01*
X0072939Y0055917D01*
X0072975Y0055868D01*
X0073008Y0055817D01*
X0073037Y0055765D01*
X0073064Y0055710D01*
X0073087Y0055655D01*
X0073107Y0055598D01*
X0073123Y0055539D01*
X0073136Y0055480D01*
X0073145Y0055421D01*
X0073150Y0055360D01*
X0073152Y0055300D01*
X0073152Y0038300D01*
X0091061Y0026229D02*
X0114061Y0026229D01*
X0114061Y0166229D01*
X0106561Y0166229D01*
X0106559Y0166103D01*
X0106553Y0165978D01*
X0106543Y0165853D01*
X0106529Y0165728D01*
X0106512Y0165603D01*
X0106490Y0165479D01*
X0106465Y0165356D01*
X0106435Y0165234D01*
X0106402Y0165113D01*
X0106365Y0164993D01*
X0106325Y0164874D01*
X0106280Y0164757D01*
X0106232Y0164640D01*
X0106180Y0164526D01*
X0106125Y0164413D01*
X0106066Y0164302D01*
X0106004Y0164193D01*
X0105938Y0164086D01*
X0105869Y0163981D01*
X0105797Y0163878D01*
X0105722Y0163777D01*
X0105643Y0163679D01*
X0105561Y0163584D01*
X0105477Y0163491D01*
X0105389Y0163401D01*
X0105299Y0163313D01*
X0105206Y0163229D01*
X0105111Y0163147D01*
X0105013Y0163068D01*
X0104912Y0162993D01*
X0104809Y0162921D01*
X0104704Y0162852D01*
X0104597Y0162786D01*
X0104488Y0162724D01*
X0104377Y0162665D01*
X0104264Y0162610D01*
X0104150Y0162558D01*
X0104033Y0162510D01*
X0103916Y0162465D01*
X0103797Y0162425D01*
X0103677Y0162388D01*
X0103556Y0162355D01*
X0103434Y0162325D01*
X0103311Y0162300D01*
X0103187Y0162278D01*
X0103062Y0162261D01*
X0102937Y0162247D01*
X0102812Y0162237D01*
X0102687Y0162231D01*
X0102561Y0162229D01*
X0102435Y0162231D01*
X0102310Y0162237D01*
X0102185Y0162247D01*
X0102060Y0162261D01*
X0101935Y0162278D01*
X0101811Y0162300D01*
X0101688Y0162325D01*
X0101566Y0162355D01*
X0101445Y0162388D01*
X0101325Y0162425D01*
X0101206Y0162465D01*
X0101089Y0162510D01*
X0100972Y0162558D01*
X0100858Y0162610D01*
X0100745Y0162665D01*
X0100634Y0162724D01*
X0100525Y0162786D01*
X0100418Y0162852D01*
X0100313Y0162921D01*
X0100210Y0162993D01*
X0100109Y0163068D01*
X0100011Y0163147D01*
X0099916Y0163229D01*
X0099823Y0163313D01*
X0099733Y0163401D01*
X0099645Y0163491D01*
X0099561Y0163584D01*
X0099479Y0163679D01*
X0099400Y0163777D01*
X0099325Y0163878D01*
X0099253Y0163981D01*
X0099184Y0164086D01*
X0099118Y0164193D01*
X0099056Y0164302D01*
X0098997Y0164413D01*
X0098942Y0164526D01*
X0098890Y0164640D01*
X0098842Y0164757D01*
X0098797Y0164874D01*
X0098757Y0164993D01*
X0098720Y0165113D01*
X0098687Y0165234D01*
X0098657Y0165356D01*
X0098632Y0165479D01*
X0098610Y0165603D01*
X0098593Y0165728D01*
X0098579Y0165853D01*
X0098569Y0165978D01*
X0098563Y0166103D01*
X0098561Y0166229D01*
X0091061Y0166229D01*
X0091061Y0026229D01*
X0102876Y0022820D02*
X0103030Y0022818D01*
X0103184Y0022812D01*
X0103338Y0022802D01*
X0103492Y0022788D01*
X0103645Y0022771D01*
X0103797Y0022749D01*
X0103949Y0022723D01*
X0104101Y0022694D01*
X0104251Y0022660D01*
X0104401Y0022623D01*
X0104549Y0022582D01*
X0104697Y0022537D01*
X0104843Y0022488D01*
X0104988Y0022436D01*
X0105131Y0022380D01*
X0105274Y0022320D01*
X0105414Y0022257D01*
X0105553Y0022190D01*
X0105690Y0022119D01*
X0105825Y0022045D01*
X0105958Y0021968D01*
X0106090Y0021887D01*
X0106219Y0021803D01*
X0106346Y0021715D01*
X0106470Y0021624D01*
X0106592Y0021531D01*
X0106712Y0021433D01*
X0106829Y0021333D01*
X0106944Y0021230D01*
X0107056Y0021124D01*
X0107165Y0021016D01*
X0107271Y0020904D01*
X0107375Y0020790D01*
X0107475Y0020673D01*
X0107573Y0020554D01*
X0107667Y0020432D01*
X0107758Y0020307D01*
X0102876Y0010820D02*
X0102724Y0010822D01*
X0102573Y0010828D01*
X0102422Y0010837D01*
X0102270Y0010851D01*
X0102120Y0010868D01*
X0101970Y0010889D01*
X0101820Y0010914D01*
X0101671Y0010942D01*
X0101523Y0010975D01*
X0101376Y0011011D01*
X0101229Y0011050D01*
X0101084Y0011094D01*
X0100940Y0011141D01*
X0100797Y0011192D01*
X0100656Y0011246D01*
X0100515Y0011304D01*
X0100377Y0011365D01*
X0100240Y0011430D01*
X0100104Y0011499D01*
X0099971Y0011570D01*
X0099839Y0011645D01*
X0099709Y0011724D01*
X0099582Y0011805D01*
X0099456Y0011890D01*
X0099332Y0011978D01*
X0099211Y0012069D01*
X0099092Y0012163D01*
X0098976Y0012261D01*
X0098862Y0012361D01*
X0098750Y0012463D01*
X0098642Y0012569D01*
X0098536Y0012677D01*
X0098432Y0012788D01*
X0098332Y0012902D01*
X0098234Y0013018D01*
X0098140Y0013137D01*
X0102876Y0010820D02*
X0103028Y0010822D01*
X0103179Y0010828D01*
X0103330Y0010837D01*
X0103482Y0010851D01*
X0103632Y0010868D01*
X0103782Y0010889D01*
X0103932Y0010914D01*
X0104081Y0010942D01*
X0104229Y0010975D01*
X0104376Y0011011D01*
X0104523Y0011050D01*
X0104668Y0011094D01*
X0104812Y0011141D01*
X0104955Y0011192D01*
X0105096Y0011246D01*
X0105237Y0011304D01*
X0105375Y0011365D01*
X0105512Y0011430D01*
X0105648Y0011499D01*
X0105781Y0011570D01*
X0105913Y0011645D01*
X0106043Y0011724D01*
X0106170Y0011805D01*
X0106296Y0011890D01*
X0106420Y0011978D01*
X0106541Y0012069D01*
X0106660Y0012163D01*
X0106776Y0012261D01*
X0106890Y0012361D01*
X0107002Y0012463D01*
X0107110Y0012569D01*
X0107216Y0012677D01*
X0107320Y0012788D01*
X0107420Y0012902D01*
X0107518Y0013018D01*
X0107612Y0013137D01*
X0102876Y0022820D02*
X0102726Y0022818D01*
X0102575Y0022812D01*
X0102425Y0022803D01*
X0102276Y0022790D01*
X0102126Y0022773D01*
X0101977Y0022752D01*
X0101829Y0022728D01*
X0101681Y0022700D01*
X0101534Y0022668D01*
X0101388Y0022633D01*
X0101243Y0022593D01*
X0101099Y0022551D01*
X0100956Y0022504D01*
X0100814Y0022454D01*
X0100673Y0022401D01*
X0100534Y0022344D01*
X0100396Y0022284D01*
X0100260Y0022220D01*
X0100126Y0022153D01*
X0099993Y0022082D01*
X0099862Y0022008D01*
X0099733Y0021931D01*
X0099606Y0021850D01*
X0099481Y0021767D01*
X0099358Y0021680D01*
X0099237Y0021591D01*
X0099119Y0021498D01*
X0099003Y0021402D01*
X0098889Y0021304D01*
X0098778Y0021203D01*
X0098669Y0021098D01*
X0098564Y0020992D01*
X0098460Y0020882D01*
X0098360Y0020770D01*
X0098262Y0020656D01*
X0098168Y0020539D01*
X0098076Y0020420D01*
X0130691Y0019257D02*
X0130691Y0012257D01*
X0130693Y0012197D01*
X0130698Y0012136D01*
X0130707Y0012077D01*
X0130720Y0012018D01*
X0130736Y0011959D01*
X0130756Y0011902D01*
X0130779Y0011847D01*
X0130806Y0011792D01*
X0130835Y0011740D01*
X0130868Y0011689D01*
X0130904Y0011640D01*
X0130942Y0011594D01*
X0130984Y0011550D01*
X0131028Y0011508D01*
X0131074Y0011470D01*
X0131123Y0011434D01*
X0131174Y0011401D01*
X0131226Y0011372D01*
X0131281Y0011345D01*
X0131336Y0011322D01*
X0131393Y0011302D01*
X0131452Y0011286D01*
X0131511Y0011273D01*
X0131570Y0011264D01*
X0131631Y0011259D01*
X0131691Y0011257D01*
X0133191Y0011257D01*
X0133691Y0011757D01*
X0152691Y0011757D01*
X0153191Y0011257D01*
X0154691Y0011257D01*
X0154751Y0011259D01*
X0154812Y0011264D01*
X0154871Y0011273D01*
X0154930Y0011286D01*
X0154989Y0011302D01*
X0155046Y0011322D01*
X0155101Y0011345D01*
X0155156Y0011372D01*
X0155208Y0011401D01*
X0155259Y0011434D01*
X0155308Y0011470D01*
X0155354Y0011508D01*
X0155398Y0011550D01*
X0155440Y0011594D01*
X0155478Y0011640D01*
X0155514Y0011689D01*
X0155547Y0011740D01*
X0155576Y0011792D01*
X0155603Y0011847D01*
X0155626Y0011902D01*
X0155646Y0011959D01*
X0155662Y0012018D01*
X0155675Y0012077D01*
X0155684Y0012136D01*
X0155689Y0012197D01*
X0155691Y0012257D01*
X0155691Y0019257D01*
X0155689Y0019317D01*
X0155684Y0019378D01*
X0155675Y0019437D01*
X0155662Y0019496D01*
X0155646Y0019555D01*
X0155626Y0019612D01*
X0155603Y0019667D01*
X0155576Y0019722D01*
X0155547Y0019774D01*
X0155514Y0019825D01*
X0155478Y0019874D01*
X0155440Y0019920D01*
X0155398Y0019964D01*
X0155354Y0020006D01*
X0155308Y0020044D01*
X0155259Y0020080D01*
X0155208Y0020113D01*
X0155156Y0020142D01*
X0155101Y0020169D01*
X0155046Y0020192D01*
X0154989Y0020212D01*
X0154930Y0020228D01*
X0154871Y0020241D01*
X0154812Y0020250D01*
X0154751Y0020255D01*
X0154691Y0020257D01*
X0153191Y0020257D01*
X0152691Y0019757D01*
X0133691Y0019757D01*
X0133191Y0020257D01*
X0131691Y0020257D01*
X0131631Y0020255D01*
X0131570Y0020250D01*
X0131511Y0020241D01*
X0131452Y0020228D01*
X0131393Y0020212D01*
X0131336Y0020192D01*
X0131281Y0020169D01*
X0131226Y0020142D01*
X0131174Y0020113D01*
X0131123Y0020080D01*
X0131074Y0020044D01*
X0131028Y0020006D01*
X0130984Y0019964D01*
X0130942Y0019920D01*
X0130904Y0019874D01*
X0130868Y0019825D01*
X0130835Y0019774D01*
X0130806Y0019722D01*
X0130779Y0019667D01*
X0130756Y0019612D01*
X0130736Y0019555D01*
X0130720Y0019496D01*
X0130707Y0019437D01*
X0130698Y0019378D01*
X0130693Y0019317D01*
X0130691Y0019257D01*
X0128652Y0080800D02*
X0128652Y0082800D01*
X0129652Y0081800D02*
X0127652Y0081800D01*
X0127152Y0081800D02*
X0127155Y0082070D01*
X0127165Y0082340D01*
X0127182Y0082609D01*
X0127205Y0082878D01*
X0127235Y0083147D01*
X0127271Y0083414D01*
X0127314Y0083681D01*
X0127363Y0083946D01*
X0127419Y0084210D01*
X0127482Y0084473D01*
X0127550Y0084734D01*
X0127626Y0084993D01*
X0127707Y0085250D01*
X0127795Y0085506D01*
X0127889Y0085759D01*
X0127989Y0086010D01*
X0128096Y0086258D01*
X0128208Y0086503D01*
X0128327Y0086746D01*
X0128451Y0086985D01*
X0128581Y0087222D01*
X0128717Y0087455D01*
X0128859Y0087685D01*
X0129006Y0087911D01*
X0129159Y0088134D01*
X0129317Y0088353D01*
X0129480Y0088568D01*
X0129649Y0088778D01*
X0129823Y0088985D01*
X0130002Y0089187D01*
X0130185Y0089385D01*
X0130374Y0089578D01*
X0130567Y0089767D01*
X0130765Y0089950D01*
X0130967Y0090129D01*
X0131174Y0090303D01*
X0131384Y0090472D01*
X0131599Y0090635D01*
X0131818Y0090793D01*
X0132041Y0090946D01*
X0132267Y0091093D01*
X0132497Y0091235D01*
X0132730Y0091371D01*
X0132967Y0091501D01*
X0133206Y0091625D01*
X0133449Y0091744D01*
X0133694Y0091856D01*
X0133942Y0091963D01*
X0134193Y0092063D01*
X0134446Y0092157D01*
X0134702Y0092245D01*
X0134959Y0092326D01*
X0135218Y0092402D01*
X0135479Y0092470D01*
X0135742Y0092533D01*
X0136006Y0092589D01*
X0136271Y0092638D01*
X0136538Y0092681D01*
X0136805Y0092717D01*
X0137074Y0092747D01*
X0137343Y0092770D01*
X0137612Y0092787D01*
X0137882Y0092797D01*
X0138152Y0092800D01*
X0138422Y0092797D01*
X0138692Y0092787D01*
X0138961Y0092770D01*
X0139230Y0092747D01*
X0139499Y0092717D01*
X0139766Y0092681D01*
X0140033Y0092638D01*
X0140298Y0092589D01*
X0140562Y0092533D01*
X0140825Y0092470D01*
X0141086Y0092402D01*
X0141345Y0092326D01*
X0141602Y0092245D01*
X0141858Y0092157D01*
X0142111Y0092063D01*
X0142362Y0091963D01*
X0142610Y0091856D01*
X0142855Y0091744D01*
X0143098Y0091625D01*
X0143337Y0091501D01*
X0143574Y0091371D01*
X0143807Y0091235D01*
X0144037Y0091093D01*
X0144263Y0090946D01*
X0144486Y0090793D01*
X0144705Y0090635D01*
X0144920Y0090472D01*
X0145130Y0090303D01*
X0145337Y0090129D01*
X0145539Y0089950D01*
X0145737Y0089767D01*
X0145930Y0089578D01*
X0146119Y0089385D01*
X0146302Y0089187D01*
X0146481Y0088985D01*
X0146655Y0088778D01*
X0146824Y0088568D01*
X0146987Y0088353D01*
X0147145Y0088134D01*
X0147298Y0087911D01*
X0147445Y0087685D01*
X0147587Y0087455D01*
X0147723Y0087222D01*
X0147853Y0086985D01*
X0147977Y0086746D01*
X0148096Y0086503D01*
X0148208Y0086258D01*
X0148315Y0086010D01*
X0148415Y0085759D01*
X0148509Y0085506D01*
X0148597Y0085250D01*
X0148678Y0084993D01*
X0148754Y0084734D01*
X0148822Y0084473D01*
X0148885Y0084210D01*
X0148941Y0083946D01*
X0148990Y0083681D01*
X0149033Y0083414D01*
X0149069Y0083147D01*
X0149099Y0082878D01*
X0149122Y0082609D01*
X0149139Y0082340D01*
X0149149Y0082070D01*
X0149152Y0081800D01*
X0149149Y0081530D01*
X0149139Y0081260D01*
X0149122Y0080991D01*
X0149099Y0080722D01*
X0149069Y0080453D01*
X0149033Y0080186D01*
X0148990Y0079919D01*
X0148941Y0079654D01*
X0148885Y0079390D01*
X0148822Y0079127D01*
X0148754Y0078866D01*
X0148678Y0078607D01*
X0148597Y0078350D01*
X0148509Y0078094D01*
X0148415Y0077841D01*
X0148315Y0077590D01*
X0148208Y0077342D01*
X0148096Y0077097D01*
X0147977Y0076854D01*
X0147853Y0076615D01*
X0147723Y0076378D01*
X0147587Y0076145D01*
X0147445Y0075915D01*
X0147298Y0075689D01*
X0147145Y0075466D01*
X0146987Y0075247D01*
X0146824Y0075032D01*
X0146655Y0074822D01*
X0146481Y0074615D01*
X0146302Y0074413D01*
X0146119Y0074215D01*
X0145930Y0074022D01*
X0145737Y0073833D01*
X0145539Y0073650D01*
X0145337Y0073471D01*
X0145130Y0073297D01*
X0144920Y0073128D01*
X0144705Y0072965D01*
X0144486Y0072807D01*
X0144263Y0072654D01*
X0144037Y0072507D01*
X0143807Y0072365D01*
X0143574Y0072229D01*
X0143337Y0072099D01*
X0143098Y0071975D01*
X0142855Y0071856D01*
X0142610Y0071744D01*
X0142362Y0071637D01*
X0142111Y0071537D01*
X0141858Y0071443D01*
X0141602Y0071355D01*
X0141345Y0071274D01*
X0141086Y0071198D01*
X0140825Y0071130D01*
X0140562Y0071067D01*
X0140298Y0071011D01*
X0140033Y0070962D01*
X0139766Y0070919D01*
X0139499Y0070883D01*
X0139230Y0070853D01*
X0138961Y0070830D01*
X0138692Y0070813D01*
X0138422Y0070803D01*
X0138152Y0070800D01*
X0137882Y0070803D01*
X0137612Y0070813D01*
X0137343Y0070830D01*
X0137074Y0070853D01*
X0136805Y0070883D01*
X0136538Y0070919D01*
X0136271Y0070962D01*
X0136006Y0071011D01*
X0135742Y0071067D01*
X0135479Y0071130D01*
X0135218Y0071198D01*
X0134959Y0071274D01*
X0134702Y0071355D01*
X0134446Y0071443D01*
X0134193Y0071537D01*
X0133942Y0071637D01*
X0133694Y0071744D01*
X0133449Y0071856D01*
X0133206Y0071975D01*
X0132967Y0072099D01*
X0132730Y0072229D01*
X0132497Y0072365D01*
X0132267Y0072507D01*
X0132041Y0072654D01*
X0131818Y0072807D01*
X0131599Y0072965D01*
X0131384Y0073128D01*
X0131174Y0073297D01*
X0130967Y0073471D01*
X0130765Y0073650D01*
X0130567Y0073833D01*
X0130374Y0074022D01*
X0130185Y0074215D01*
X0130002Y0074413D01*
X0129823Y0074615D01*
X0129649Y0074822D01*
X0129480Y0075032D01*
X0129317Y0075247D01*
X0129159Y0075466D01*
X0129006Y0075689D01*
X0128859Y0075915D01*
X0128717Y0076145D01*
X0128581Y0076378D01*
X0128451Y0076615D01*
X0128327Y0076854D01*
X0128208Y0077097D01*
X0128096Y0077342D01*
X0127989Y0077590D01*
X0127889Y0077841D01*
X0127795Y0078094D01*
X0127707Y0078350D01*
X0127626Y0078607D01*
X0127550Y0078866D01*
X0127482Y0079127D01*
X0127419Y0079390D01*
X0127363Y0079654D01*
X0127314Y0079919D01*
X0127271Y0080186D01*
X0127235Y0080453D01*
X0127205Y0080722D01*
X0127182Y0080991D01*
X0127165Y0081260D01*
X0127155Y0081530D01*
X0127152Y0081800D01*
X0163806Y0136859D02*
X0170806Y0136859D01*
X0170866Y0136861D01*
X0170927Y0136866D01*
X0170986Y0136875D01*
X0171045Y0136888D01*
X0171104Y0136904D01*
X0171161Y0136924D01*
X0171216Y0136947D01*
X0171271Y0136974D01*
X0171323Y0137003D01*
X0171374Y0137036D01*
X0171423Y0137072D01*
X0171469Y0137110D01*
X0171513Y0137152D01*
X0171555Y0137196D01*
X0171593Y0137242D01*
X0171629Y0137291D01*
X0171662Y0137342D01*
X0171691Y0137394D01*
X0171718Y0137449D01*
X0171741Y0137504D01*
X0171761Y0137561D01*
X0171777Y0137620D01*
X0171790Y0137679D01*
X0171799Y0137738D01*
X0171804Y0137799D01*
X0171806Y0137859D01*
X0171806Y0139359D01*
X0171306Y0139859D01*
X0171306Y0158859D01*
X0171806Y0159359D01*
X0171806Y0160859D01*
X0171804Y0160919D01*
X0171799Y0160980D01*
X0171790Y0161039D01*
X0171777Y0161098D01*
X0171761Y0161157D01*
X0171741Y0161214D01*
X0171718Y0161269D01*
X0171691Y0161324D01*
X0171662Y0161376D01*
X0171629Y0161427D01*
X0171593Y0161476D01*
X0171555Y0161522D01*
X0171513Y0161566D01*
X0171469Y0161608D01*
X0171423Y0161646D01*
X0171374Y0161682D01*
X0171323Y0161715D01*
X0171271Y0161744D01*
X0171216Y0161771D01*
X0171161Y0161794D01*
X0171104Y0161814D01*
X0171045Y0161830D01*
X0170986Y0161843D01*
X0170927Y0161852D01*
X0170866Y0161857D01*
X0170806Y0161859D01*
X0163806Y0161859D01*
X0163746Y0161857D01*
X0163685Y0161852D01*
X0163626Y0161843D01*
X0163567Y0161830D01*
X0163508Y0161814D01*
X0163451Y0161794D01*
X0163396Y0161771D01*
X0163341Y0161744D01*
X0163289Y0161715D01*
X0163238Y0161682D01*
X0163189Y0161646D01*
X0163143Y0161608D01*
X0163099Y0161566D01*
X0163057Y0161522D01*
X0163019Y0161476D01*
X0162983Y0161427D01*
X0162950Y0161376D01*
X0162921Y0161324D01*
X0162894Y0161269D01*
X0162871Y0161214D01*
X0162851Y0161157D01*
X0162835Y0161098D01*
X0162822Y0161039D01*
X0162813Y0160980D01*
X0162808Y0160919D01*
X0162806Y0160859D01*
X0162806Y0159359D01*
X0163306Y0158859D01*
X0163306Y0139859D01*
X0162806Y0139359D01*
X0162806Y0137859D01*
X0162808Y0137799D01*
X0162813Y0137738D01*
X0162822Y0137679D01*
X0162835Y0137620D01*
X0162851Y0137561D01*
X0162871Y0137504D01*
X0162894Y0137449D01*
X0162921Y0137394D01*
X0162950Y0137342D01*
X0162983Y0137291D01*
X0163019Y0137242D01*
X0163057Y0137196D01*
X0163099Y0137152D01*
X0163143Y0137110D01*
X0163189Y0137072D01*
X0163238Y0137036D01*
X0163289Y0137003D01*
X0163341Y0136974D01*
X0163396Y0136947D01*
X0163451Y0136924D01*
X0163508Y0136904D01*
X0163567Y0136888D01*
X0163626Y0136875D01*
X0163685Y0136866D01*
X0163746Y0136861D01*
X0163806Y0136859D01*
X0155617Y0145607D02*
X0147617Y0145607D01*
X0147557Y0145609D01*
X0147496Y0145614D01*
X0147437Y0145623D01*
X0147378Y0145636D01*
X0147319Y0145652D01*
X0147262Y0145672D01*
X0147207Y0145695D01*
X0147152Y0145722D01*
X0147100Y0145751D01*
X0147049Y0145784D01*
X0147000Y0145820D01*
X0146954Y0145858D01*
X0146910Y0145900D01*
X0146868Y0145944D01*
X0146830Y0145990D01*
X0146794Y0146039D01*
X0146761Y0146090D01*
X0146732Y0146142D01*
X0146705Y0146197D01*
X0146682Y0146252D01*
X0146662Y0146309D01*
X0146646Y0146368D01*
X0146633Y0146427D01*
X0146624Y0146486D01*
X0146619Y0146547D01*
X0146617Y0146607D01*
X0146617Y0163607D01*
X0146619Y0163667D01*
X0146624Y0163728D01*
X0146633Y0163787D01*
X0146646Y0163846D01*
X0146662Y0163905D01*
X0146682Y0163962D01*
X0146705Y0164017D01*
X0146732Y0164072D01*
X0146761Y0164124D01*
X0146794Y0164175D01*
X0146830Y0164224D01*
X0146868Y0164270D01*
X0146910Y0164314D01*
X0146954Y0164356D01*
X0147000Y0164394D01*
X0147049Y0164430D01*
X0147100Y0164463D01*
X0147152Y0164492D01*
X0147207Y0164519D01*
X0147262Y0164542D01*
X0147319Y0164562D01*
X0147378Y0164578D01*
X0147437Y0164591D01*
X0147496Y0164600D01*
X0147557Y0164605D01*
X0147617Y0164607D01*
X0155617Y0164607D01*
X0155677Y0164605D01*
X0155738Y0164600D01*
X0155797Y0164591D01*
X0155856Y0164578D01*
X0155915Y0164562D01*
X0155972Y0164542D01*
X0156027Y0164519D01*
X0156082Y0164492D01*
X0156134Y0164463D01*
X0156185Y0164430D01*
X0156234Y0164394D01*
X0156280Y0164356D01*
X0156324Y0164314D01*
X0156366Y0164270D01*
X0156404Y0164224D01*
X0156440Y0164175D01*
X0156473Y0164124D01*
X0156502Y0164072D01*
X0156529Y0164017D01*
X0156552Y0163962D01*
X0156572Y0163905D01*
X0156588Y0163846D01*
X0156601Y0163787D01*
X0156610Y0163728D01*
X0156615Y0163667D01*
X0156617Y0163607D01*
X0156617Y0146607D01*
X0156615Y0146547D01*
X0156610Y0146486D01*
X0156601Y0146427D01*
X0156588Y0146368D01*
X0156572Y0146309D01*
X0156552Y0146252D01*
X0156529Y0146197D01*
X0156502Y0146142D01*
X0156473Y0146090D01*
X0156440Y0146039D01*
X0156404Y0145990D01*
X0156366Y0145944D01*
X0156324Y0145900D01*
X0156280Y0145858D01*
X0156234Y0145820D01*
X0156185Y0145784D01*
X0156134Y0145751D01*
X0156082Y0145722D01*
X0156027Y0145695D01*
X0155972Y0145672D01*
X0155915Y0145652D01*
X0155856Y0145636D01*
X0155797Y0145623D01*
X0155738Y0145614D01*
X0155677Y0145609D01*
X0155617Y0145607D01*
X0151617Y0153607D02*
X0151617Y0154107D01*
X0151617Y0156107D02*
X0151617Y0156607D01*
X0140652Y0162800D02*
X0140652Y0145800D01*
X0140650Y0145740D01*
X0140645Y0145679D01*
X0140636Y0145620D01*
X0140623Y0145561D01*
X0140607Y0145502D01*
X0140587Y0145445D01*
X0140564Y0145390D01*
X0140537Y0145335D01*
X0140508Y0145283D01*
X0140475Y0145232D01*
X0140439Y0145183D01*
X0140401Y0145137D01*
X0140359Y0145093D01*
X0140315Y0145051D01*
X0140269Y0145013D01*
X0140220Y0144977D01*
X0140169Y0144944D01*
X0140117Y0144915D01*
X0140062Y0144888D01*
X0140007Y0144865D01*
X0139950Y0144845D01*
X0139891Y0144829D01*
X0139832Y0144816D01*
X0139773Y0144807D01*
X0139712Y0144802D01*
X0139652Y0144800D01*
X0131652Y0144800D01*
X0131592Y0144802D01*
X0131531Y0144807D01*
X0131472Y0144816D01*
X0131413Y0144829D01*
X0131354Y0144845D01*
X0131297Y0144865D01*
X0131242Y0144888D01*
X0131187Y0144915D01*
X0131135Y0144944D01*
X0131084Y0144977D01*
X0131035Y0145013D01*
X0130989Y0145051D01*
X0130945Y0145093D01*
X0130903Y0145137D01*
X0130865Y0145183D01*
X0130829Y0145232D01*
X0130796Y0145283D01*
X0130767Y0145335D01*
X0130740Y0145390D01*
X0130717Y0145445D01*
X0130697Y0145502D01*
X0130681Y0145561D01*
X0130668Y0145620D01*
X0130659Y0145679D01*
X0130654Y0145740D01*
X0130652Y0145800D01*
X0130652Y0162800D01*
X0130654Y0162860D01*
X0130659Y0162921D01*
X0130668Y0162980D01*
X0130681Y0163039D01*
X0130697Y0163098D01*
X0130717Y0163155D01*
X0130740Y0163210D01*
X0130767Y0163265D01*
X0130796Y0163317D01*
X0130829Y0163368D01*
X0130865Y0163417D01*
X0130903Y0163463D01*
X0130945Y0163507D01*
X0130989Y0163549D01*
X0131035Y0163587D01*
X0131084Y0163623D01*
X0131135Y0163656D01*
X0131187Y0163685D01*
X0131242Y0163712D01*
X0131297Y0163735D01*
X0131354Y0163755D01*
X0131413Y0163771D01*
X0131472Y0163784D01*
X0131531Y0163793D01*
X0131592Y0163798D01*
X0131652Y0163800D01*
X0139652Y0163800D01*
X0139712Y0163798D01*
X0139773Y0163793D01*
X0139832Y0163784D01*
X0139891Y0163771D01*
X0139950Y0163755D01*
X0140007Y0163735D01*
X0140062Y0163712D01*
X0140117Y0163685D01*
X0140169Y0163656D01*
X0140220Y0163623D01*
X0140269Y0163587D01*
X0140315Y0163549D01*
X0140359Y0163507D01*
X0140401Y0163463D01*
X0140439Y0163417D01*
X0140475Y0163368D01*
X0140508Y0163317D01*
X0140537Y0163265D01*
X0140564Y0163210D01*
X0140587Y0163155D01*
X0140607Y0163098D01*
X0140623Y0163039D01*
X0140636Y0162980D01*
X0140645Y0162921D01*
X0140650Y0162860D01*
X0140652Y0162800D01*
X0135652Y0155800D02*
X0135652Y0155300D01*
X0135652Y0153300D02*
X0135652Y0152800D01*
X0132998Y0185737D02*
X0149998Y0185737D01*
X0150058Y0185739D01*
X0150119Y0185744D01*
X0150178Y0185753D01*
X0150237Y0185766D01*
X0150296Y0185782D01*
X0150353Y0185802D01*
X0150408Y0185825D01*
X0150463Y0185852D01*
X0150515Y0185881D01*
X0150566Y0185914D01*
X0150615Y0185950D01*
X0150661Y0185988D01*
X0150705Y0186030D01*
X0150747Y0186074D01*
X0150785Y0186120D01*
X0150821Y0186169D01*
X0150854Y0186220D01*
X0150883Y0186272D01*
X0150910Y0186327D01*
X0150933Y0186382D01*
X0150953Y0186439D01*
X0150969Y0186498D01*
X0150982Y0186557D01*
X0150991Y0186616D01*
X0150996Y0186677D01*
X0150998Y0186737D01*
X0150998Y0194737D01*
X0150996Y0194797D01*
X0150991Y0194858D01*
X0150982Y0194917D01*
X0150969Y0194976D01*
X0150953Y0195035D01*
X0150933Y0195092D01*
X0150910Y0195147D01*
X0150883Y0195202D01*
X0150854Y0195254D01*
X0150821Y0195305D01*
X0150785Y0195354D01*
X0150747Y0195400D01*
X0150705Y0195444D01*
X0150661Y0195486D01*
X0150615Y0195524D01*
X0150566Y0195560D01*
X0150515Y0195593D01*
X0150463Y0195622D01*
X0150408Y0195649D01*
X0150353Y0195672D01*
X0150296Y0195692D01*
X0150237Y0195708D01*
X0150178Y0195721D01*
X0150119Y0195730D01*
X0150058Y0195735D01*
X0149998Y0195737D01*
X0132998Y0195737D01*
X0132938Y0195735D01*
X0132877Y0195730D01*
X0132818Y0195721D01*
X0132759Y0195708D01*
X0132700Y0195692D01*
X0132643Y0195672D01*
X0132588Y0195649D01*
X0132533Y0195622D01*
X0132481Y0195593D01*
X0132430Y0195560D01*
X0132381Y0195524D01*
X0132335Y0195486D01*
X0132291Y0195444D01*
X0132249Y0195400D01*
X0132211Y0195354D01*
X0132175Y0195305D01*
X0132142Y0195254D01*
X0132113Y0195202D01*
X0132086Y0195147D01*
X0132063Y0195092D01*
X0132043Y0195035D01*
X0132027Y0194976D01*
X0132014Y0194917D01*
X0132005Y0194858D01*
X0132000Y0194797D01*
X0131998Y0194737D01*
X0131998Y0186737D01*
X0132000Y0186677D01*
X0132005Y0186616D01*
X0132014Y0186557D01*
X0132027Y0186498D01*
X0132043Y0186439D01*
X0132063Y0186382D01*
X0132086Y0186327D01*
X0132113Y0186272D01*
X0132142Y0186220D01*
X0132175Y0186169D01*
X0132211Y0186120D01*
X0132249Y0186074D01*
X0132291Y0186030D01*
X0132335Y0185988D01*
X0132381Y0185950D01*
X0132430Y0185914D01*
X0132481Y0185881D01*
X0132533Y0185852D01*
X0132588Y0185825D01*
X0132643Y0185802D01*
X0132700Y0185782D01*
X0132759Y0185766D01*
X0132818Y0185753D01*
X0132877Y0185744D01*
X0132938Y0185739D01*
X0132998Y0185737D01*
X0139998Y0190737D02*
X0140498Y0190737D01*
X0142498Y0190737D02*
X0142998Y0190737D01*
X0026317Y0058690D02*
X0019317Y0058690D01*
X0019257Y0058688D01*
X0019196Y0058683D01*
X0019137Y0058674D01*
X0019078Y0058661D01*
X0019019Y0058645D01*
X0018962Y0058625D01*
X0018907Y0058602D01*
X0018852Y0058575D01*
X0018800Y0058546D01*
X0018749Y0058513D01*
X0018700Y0058477D01*
X0018654Y0058439D01*
X0018610Y0058397D01*
X0018568Y0058353D01*
X0018530Y0058307D01*
X0018494Y0058258D01*
X0018461Y0058207D01*
X0018432Y0058155D01*
X0018405Y0058100D01*
X0018382Y0058045D01*
X0018362Y0057988D01*
X0018346Y0057929D01*
X0018333Y0057870D01*
X0018324Y0057811D01*
X0018319Y0057750D01*
X0018317Y0057690D01*
X0018317Y0056190D01*
X0018817Y0055690D01*
X0018817Y0036690D01*
X0018317Y0036190D01*
X0018317Y0034690D01*
X0018319Y0034630D01*
X0018324Y0034569D01*
X0018333Y0034510D01*
X0018346Y0034451D01*
X0018362Y0034392D01*
X0018382Y0034335D01*
X0018405Y0034280D01*
X0018432Y0034225D01*
X0018461Y0034173D01*
X0018494Y0034122D01*
X0018530Y0034073D01*
X0018568Y0034027D01*
X0018610Y0033983D01*
X0018654Y0033941D01*
X0018700Y0033903D01*
X0018749Y0033867D01*
X0018800Y0033834D01*
X0018852Y0033805D01*
X0018907Y0033778D01*
X0018962Y0033755D01*
X0019019Y0033735D01*
X0019078Y0033719D01*
X0019137Y0033706D01*
X0019196Y0033697D01*
X0019257Y0033692D01*
X0019317Y0033690D01*
X0026317Y0033690D01*
X0026377Y0033692D01*
X0026438Y0033697D01*
X0026497Y0033706D01*
X0026556Y0033719D01*
X0026615Y0033735D01*
X0026672Y0033755D01*
X0026727Y0033778D01*
X0026782Y0033805D01*
X0026834Y0033834D01*
X0026885Y0033867D01*
X0026934Y0033903D01*
X0026980Y0033941D01*
X0027024Y0033983D01*
X0027066Y0034027D01*
X0027104Y0034073D01*
X0027140Y0034122D01*
X0027173Y0034173D01*
X0027202Y0034225D01*
X0027229Y0034280D01*
X0027252Y0034335D01*
X0027272Y0034392D01*
X0027288Y0034451D01*
X0027301Y0034510D01*
X0027310Y0034569D01*
X0027315Y0034630D01*
X0027317Y0034690D01*
X0027317Y0036190D01*
X0026817Y0036690D01*
X0026817Y0055690D01*
X0027317Y0056190D01*
X0027317Y0057690D01*
X0027315Y0057750D01*
X0027310Y0057811D01*
X0027301Y0057870D01*
X0027288Y0057929D01*
X0027272Y0057988D01*
X0027252Y0058045D01*
X0027229Y0058100D01*
X0027202Y0058155D01*
X0027173Y0058207D01*
X0027140Y0058258D01*
X0027104Y0058307D01*
X0027066Y0058353D01*
X0027024Y0058397D01*
X0026980Y0058439D01*
X0026934Y0058477D01*
X0026885Y0058513D01*
X0026834Y0058546D01*
X0026782Y0058575D01*
X0026727Y0058602D01*
X0026672Y0058625D01*
X0026615Y0058645D01*
X0026556Y0058661D01*
X0026497Y0058674D01*
X0026438Y0058683D01*
X0026377Y0058688D01*
X0026317Y0058690D01*
D15*
X0011400Y0067292D02*
X0011400Y0072292D01*
X0008900Y0074792D01*
X0011400Y0077292D01*
X0011400Y0082292D01*
X0008900Y0084792D01*
X0011400Y0087292D01*
X0011400Y0092292D01*
X0008900Y0094792D01*
X0011400Y0097292D01*
X0011400Y0102292D01*
X0008900Y0104792D01*
X0011400Y0107292D01*
X0011400Y0112292D01*
X0008900Y0114792D01*
X0011400Y0117292D01*
X0011400Y0122292D01*
X0008900Y0124792D01*
X0011400Y0127292D01*
X0011400Y0132292D01*
X0008900Y0134792D01*
X0011400Y0137292D01*
X0011400Y0142292D01*
X0008900Y0144792D01*
X0003900Y0144792D01*
X0001400Y0142292D01*
X0001400Y0137292D01*
X0003900Y0134792D01*
X0001400Y0132292D01*
X0001400Y0127292D01*
X0003900Y0124792D01*
X0001400Y0122292D01*
X0001400Y0117292D01*
X0003900Y0114792D01*
X0001400Y0112292D01*
X0001400Y0107292D01*
X0003900Y0104792D01*
X0001400Y0102292D01*
X0001400Y0097292D01*
X0003900Y0094792D01*
X0001400Y0092292D01*
X0001400Y0087292D01*
X0003900Y0084792D01*
X0001400Y0082292D01*
X0001400Y0077292D01*
X0003900Y0074792D01*
X0001400Y0072292D01*
X0001400Y0067292D01*
X0003900Y0064792D01*
X0008900Y0064792D01*
X0011400Y0067292D01*
X0053998Y0068867D02*
X0056498Y0066367D01*
X0061498Y0066367D01*
X0063998Y0068867D01*
X0063998Y0073867D01*
X0061498Y0076367D01*
X0063998Y0078867D01*
X0063998Y0083867D01*
X0061498Y0086367D01*
X0063998Y0088867D01*
X0063998Y0093867D01*
X0061498Y0096367D01*
X0056498Y0096367D01*
X0053998Y0093867D01*
X0053998Y0088867D01*
X0056498Y0086367D01*
X0053998Y0083867D01*
X0053998Y0078867D01*
X0056498Y0076367D01*
X0053998Y0073867D01*
X0053998Y0068867D01*
X0045140Y0021249D02*
X0040140Y0021249D01*
X0037640Y0018749D01*
X0037640Y0013749D02*
X0040140Y0011249D01*
X0045140Y0011249D01*
X0047640Y0013749D01*
X0047640Y0018749D01*
X0045140Y0021249D01*
X0027640Y0018749D02*
X0025140Y0021249D01*
X0020140Y0021249D01*
X0017640Y0018749D01*
X0017640Y0013749D01*
X0020140Y0011249D01*
X0025140Y0011249D01*
X0027640Y0013749D01*
X0190317Y0065658D02*
X0190317Y0070658D01*
X0192817Y0073158D01*
X0190317Y0075658D01*
X0190317Y0080658D01*
X0192817Y0083158D01*
X0190317Y0085658D01*
X0190317Y0090658D01*
X0192817Y0093158D01*
X0190317Y0095658D01*
X0190317Y0100658D01*
X0192817Y0103158D01*
X0190317Y0105658D01*
X0190317Y0110658D01*
X0192817Y0113158D01*
X0190317Y0115658D01*
X0190317Y0120658D01*
X0192817Y0123158D01*
X0190317Y0125658D01*
X0190317Y0130658D01*
X0192817Y0133158D01*
X0190317Y0135658D01*
X0190317Y0140658D01*
X0192817Y0143158D01*
X0197817Y0143158D01*
X0200317Y0140658D01*
X0200317Y0135658D01*
X0197817Y0133158D01*
X0200317Y0130658D01*
X0200317Y0125658D01*
X0197817Y0123158D01*
X0200317Y0120658D01*
X0200317Y0115658D01*
X0197817Y0113158D01*
X0200317Y0110658D01*
X0200317Y0105658D01*
X0197817Y0103158D01*
X0200317Y0100658D01*
X0200317Y0095658D01*
X0197817Y0093158D01*
X0200317Y0090658D01*
X0200317Y0085658D01*
X0197817Y0083158D01*
X0200317Y0080658D01*
X0200317Y0075658D01*
X0197817Y0073158D01*
X0200317Y0070658D01*
X0200317Y0065658D01*
X0197817Y0063158D01*
X0192817Y0063158D01*
X0190317Y0065658D01*
X0192128Y0146485D02*
X0189628Y0148985D01*
X0189628Y0153985D01*
X0192128Y0156485D01*
X0189628Y0158985D01*
X0189628Y0163985D01*
X0192128Y0166485D01*
X0189628Y0168985D01*
X0189628Y0173985D01*
X0192128Y0176485D01*
X0189628Y0178985D01*
X0189628Y0183985D01*
X0192128Y0186485D01*
X0189628Y0188985D01*
X0189628Y0193985D01*
X0192128Y0196485D01*
X0197128Y0196485D01*
X0199628Y0193985D01*
X0199628Y0188985D01*
X0197128Y0186485D01*
X0199628Y0183985D01*
X0199628Y0178985D01*
X0197128Y0176485D01*
X0199628Y0173985D01*
X0199628Y0168985D01*
X0197128Y0166485D01*
X0199628Y0163985D01*
X0199628Y0158985D01*
X0197128Y0156485D01*
X0199628Y0153985D01*
X0199628Y0148985D01*
X0197128Y0146485D01*
X0192128Y0146485D01*
X0182798Y0185658D02*
X0177798Y0185658D01*
X0175298Y0188158D01*
X0175298Y0193158D02*
X0177798Y0195658D01*
X0182798Y0195658D01*
X0185298Y0193158D01*
X0185298Y0188158D01*
X0182798Y0185658D01*
X0165298Y0188158D02*
X0162798Y0185658D01*
X0157798Y0185658D01*
X0155298Y0188158D01*
X0155298Y0193158D01*
X0157798Y0195658D01*
X0162798Y0195658D01*
X0165298Y0193158D01*
X0095829Y0190776D02*
X0095829Y0195776D01*
X0093329Y0198276D01*
X0088329Y0198276D01*
X0085829Y0195776D01*
X0083329Y0198276D01*
X0078329Y0198276D01*
X0075829Y0195776D01*
X0073329Y0198276D01*
X0068329Y0198276D01*
X0065829Y0195776D01*
X0063329Y0198276D01*
X0058329Y0198276D01*
X0055829Y0195776D01*
X0053329Y0198276D01*
X0048329Y0198276D01*
X0045829Y0195776D01*
X0045829Y0190776D01*
X0048329Y0188276D01*
X0053329Y0188276D01*
X0055829Y0190776D01*
X0058329Y0188276D01*
X0063329Y0188276D01*
X0065829Y0190776D01*
X0068329Y0188276D01*
X0073329Y0188276D01*
X0075829Y0190776D01*
X0078329Y0188276D01*
X0083329Y0188276D01*
X0085829Y0190776D01*
X0088329Y0188276D01*
X0093329Y0188276D01*
X0095829Y0190776D01*
D16*
X0167306Y0163559D03*
X0167306Y0135159D03*
X0022817Y0060390D03*
X0022817Y0031990D03*
D17*
X0128991Y0015757D03*
X0157391Y0015757D03*
D18*
X0050140Y0008749D02*
X0050140Y0023749D01*
X0015140Y0023749D01*
X0015140Y0008749D01*
X0050140Y0008749D01*
X0037640Y0013749D02*
X0037640Y0018749D01*
X0027640Y0018749D02*
X0027640Y0013749D01*
X0105752Y0181855D02*
X0122244Y0181855D01*
X0122871Y0187355D02*
X0124451Y0187355D01*
X0115126Y0187355D02*
X0112871Y0187355D01*
X0105752Y0181855D02*
X0105599Y0182054D01*
X0105451Y0182256D01*
X0105308Y0182461D01*
X0105170Y0182670D01*
X0105037Y0182882D01*
X0104909Y0183097D01*
X0104787Y0183315D01*
X0104669Y0183536D01*
X0104557Y0183760D01*
X0104450Y0183986D01*
X0104349Y0184215D01*
X0104253Y0184446D01*
X0104162Y0184680D01*
X0104077Y0184915D01*
X0103998Y0185153D01*
X0103925Y0185392D01*
X0103857Y0185633D01*
X0103795Y0185875D01*
X0103739Y0186119D01*
X0103688Y0186365D01*
X0103644Y0186611D01*
X0103605Y0186858D01*
X0103573Y0187106D01*
X0103546Y0187355D01*
X0105126Y0187355D01*
X0117094Y0198388D02*
X0117336Y0198310D01*
X0117576Y0198226D01*
X0117814Y0198137D01*
X0118050Y0198041D01*
X0118284Y0197940D01*
X0118515Y0197834D01*
X0118743Y0197721D01*
X0118969Y0197604D01*
X0119192Y0197481D01*
X0119411Y0197352D01*
X0119628Y0197218D01*
X0119841Y0197079D01*
X0120051Y0196935D01*
X0120257Y0196786D01*
X0120459Y0196632D01*
X0120658Y0196473D01*
X0120853Y0196309D01*
X0121044Y0196140D01*
X0121230Y0195967D01*
X0121413Y0195790D01*
X0121591Y0195608D01*
X0121764Y0195422D01*
X0121933Y0195231D01*
X0122097Y0195037D01*
X0122257Y0194839D01*
X0122412Y0194637D01*
X0122561Y0194431D01*
X0122706Y0194222D01*
X0122846Y0194009D01*
X0122980Y0193793D01*
X0123109Y0193573D01*
X0123233Y0193351D01*
X0123352Y0193126D01*
X0123464Y0192898D01*
X0123572Y0192667D01*
X0123673Y0192434D01*
X0123769Y0192198D01*
X0123860Y0191960D01*
X0123944Y0191720D01*
X0124023Y0191478D01*
X0124096Y0191234D01*
X0124162Y0190988D01*
X0124223Y0190741D01*
X0124278Y0190493D01*
X0124327Y0190243D01*
X0124370Y0189992D01*
X0124406Y0189740D01*
X0124437Y0189488D01*
X0124461Y0189234D01*
X0124479Y0188981D01*
X0124491Y0188726D01*
X0124497Y0188472D01*
X0124497Y0188217D01*
X0124491Y0187963D01*
X0124478Y0187709D01*
X0124459Y0187455D01*
X0124434Y0187202D01*
X0124403Y0186949D01*
X0124366Y0186697D01*
X0124323Y0186447D01*
X0124274Y0186197D01*
X0124219Y0185948D01*
X0124157Y0185701D01*
X0124090Y0185456D01*
X0124017Y0185212D01*
X0123938Y0184970D01*
X0123853Y0184731D01*
X0123762Y0184493D01*
X0123665Y0184257D01*
X0123563Y0184024D01*
X0123455Y0183794D01*
X0123342Y0183566D01*
X0123223Y0183341D01*
X0123099Y0183119D01*
X0122970Y0182900D01*
X0122835Y0182684D01*
X0122695Y0182471D01*
X0122549Y0182262D01*
X0122399Y0182057D01*
X0122244Y0181855D01*
X0103546Y0187355D02*
X0103524Y0187610D01*
X0103509Y0187866D01*
X0103501Y0188122D01*
X0103498Y0188379D01*
X0103502Y0188635D01*
X0103512Y0188891D01*
X0103528Y0189147D01*
X0103550Y0189402D01*
X0103579Y0189657D01*
X0103614Y0189911D01*
X0103655Y0190164D01*
X0103702Y0190416D01*
X0103756Y0190666D01*
X0103815Y0190915D01*
X0103881Y0191163D01*
X0103952Y0191409D01*
X0104030Y0191654D01*
X0104113Y0191896D01*
X0104202Y0192136D01*
X0104298Y0192374D01*
X0104399Y0192610D01*
X0104505Y0192843D01*
X0104618Y0193073D01*
X0104736Y0193301D01*
X0104859Y0193525D01*
X0104988Y0193747D01*
X0105122Y0193965D01*
X0105262Y0194180D01*
X0105407Y0194391D01*
X0105557Y0194599D01*
X0105711Y0194803D01*
X0105871Y0195004D01*
X0106036Y0195200D01*
X0106205Y0195392D01*
X0106380Y0195581D01*
X0106558Y0195764D01*
X0106741Y0195944D01*
X0106929Y0196119D01*
X0107120Y0196289D01*
X0107316Y0196454D01*
X0107516Y0196615D01*
X0107719Y0196771D01*
X0107926Y0196921D01*
X0108137Y0197067D01*
X0108352Y0197208D01*
X0108569Y0197343D01*
X0108790Y0197473D01*
X0109014Y0197597D01*
X0109241Y0197716D01*
X0109471Y0197829D01*
X0109704Y0197937D01*
X0109939Y0198039D01*
X0110177Y0198135D01*
X0110416Y0198225D01*
X0110658Y0198310D01*
X0110902Y0198388D01*
X0087758Y0201544D02*
X0087758Y0184615D01*
X0053900Y0184615D01*
X0053900Y0201544D01*
X0087758Y0201544D01*
X0152798Y0198158D02*
X0152798Y0183158D01*
X0187798Y0183158D01*
X0187798Y0198158D01*
X0152798Y0198158D01*
X0165298Y0193158D02*
X0165298Y0188158D01*
X0175298Y0188158D02*
X0175298Y0193158D01*
D19*
X0046180Y0193709D02*
X0041576Y0193709D01*
X0043111Y0192175D01*
X0041576Y0190640D02*
X0041576Y0189105D01*
X0041576Y0189873D02*
X0045413Y0189873D01*
X0046180Y0189105D01*
X0046180Y0188338D01*
X0045413Y0187571D01*
X0046180Y0192175D02*
X0046180Y0195244D01*
M02*
