G75*
%MOIN*%
%OFA0B0*%
%FSLAX25Y25*%
%IPPOS*%
%LPD*%
%AMOC8*
5,1,8,0,0,1.08239X$1,22.5*
%
%ADD10C,0.00000*%
%ADD11OC8,0.05200*%
%ADD12C,0.07400*%
%ADD13C,0.05200*%
%ADD14C,0.05150*%
%ADD15C,0.11220*%
%ADD16OC8,0.06200*%
%ADD17C,0.06200*%
%ADD18C,0.01600*%
%ADD19R,0.03962X0.03962*%
D10*
X0003152Y0004300D02*
X0003152Y0201150D01*
X0200002Y0201150D01*
X0200002Y0004300D01*
X0003152Y0004300D01*
D11*
X0022817Y0026190D03*
X0022817Y0066190D03*
X0068152Y0051800D03*
X0068152Y0041800D03*
X0097876Y0016820D03*
X0107876Y0016820D03*
X0123191Y0015757D03*
X0163191Y0015757D03*
X0167306Y0129359D03*
X0151617Y0150107D03*
X0151617Y0160107D03*
X0135652Y0159300D03*
X0135652Y0149300D03*
X0167306Y0169359D03*
X0146498Y0190737D03*
X0136498Y0190737D03*
X0118998Y0188355D03*
X0113998Y0195855D03*
X0108998Y0188355D03*
D12*
X0090829Y0193276D03*
X0080829Y0193276D03*
X0070829Y0193276D03*
X0060829Y0193276D03*
X0050829Y0193276D03*
X0006400Y0139792D03*
X0006400Y0129792D03*
X0006400Y0119792D03*
X0006400Y0109792D03*
X0006400Y0099792D03*
X0006400Y0089792D03*
X0006400Y0079792D03*
X0006400Y0069792D03*
X0058998Y0071367D03*
X0058998Y0081367D03*
X0058998Y0091367D03*
X0042640Y0016249D03*
X0022640Y0016249D03*
X0194628Y0151485D03*
X0194628Y0161485D03*
X0194628Y0171485D03*
X0194628Y0181485D03*
X0194628Y0191485D03*
X0180298Y0190658D03*
X0160298Y0190658D03*
X0195317Y0138158D03*
X0195317Y0128158D03*
X0195317Y0118158D03*
X0195317Y0108158D03*
X0195317Y0098158D03*
X0195317Y0088158D03*
X0195317Y0078158D03*
X0195317Y0068158D03*
D13*
X0120161Y0071229D02*
X0114961Y0071229D01*
X0114961Y0061229D02*
X0120161Y0061229D01*
X0120161Y0051229D02*
X0114961Y0051229D01*
X0114961Y0041229D02*
X0120161Y0041229D01*
X0120161Y0031229D02*
X0114961Y0031229D01*
X0090161Y0031229D02*
X0084961Y0031229D01*
X0084961Y0041229D02*
X0090161Y0041229D01*
X0090161Y0051229D02*
X0084961Y0051229D01*
X0084961Y0061229D02*
X0090161Y0061229D01*
X0090161Y0071229D02*
X0084961Y0071229D01*
X0084961Y0081229D02*
X0090161Y0081229D01*
X0090161Y0091229D02*
X0084961Y0091229D01*
X0084961Y0101229D02*
X0090161Y0101229D01*
X0090161Y0111229D02*
X0084961Y0111229D01*
X0084961Y0121229D02*
X0090161Y0121229D01*
X0090161Y0131229D02*
X0084961Y0131229D01*
X0084961Y0141229D02*
X0090161Y0141229D01*
X0090161Y0151229D02*
X0084961Y0151229D01*
X0084961Y0161229D02*
X0090161Y0161229D01*
X0114961Y0161229D02*
X0120161Y0161229D01*
X0120161Y0151229D02*
X0114961Y0151229D01*
X0114961Y0141229D02*
X0120161Y0141229D01*
X0120161Y0131229D02*
X0114961Y0131229D01*
X0114961Y0121229D02*
X0120161Y0121229D01*
X0120161Y0111229D02*
X0114961Y0111229D01*
X0114961Y0101229D02*
X0120161Y0101229D01*
X0120161Y0091229D02*
X0114961Y0091229D01*
X0114961Y0081229D02*
X0120161Y0081229D01*
D14*
X0037916Y0175166D03*
X0033191Y0178316D03*
X0037916Y0181465D03*
X0033191Y0184615D03*
X0037916Y0187765D03*
D15*
X0017837Y0195835D03*
X0017837Y0167095D03*
D16*
X0143152Y0081800D03*
D17*
X0133152Y0081800D03*
D18*
X0117561Y0091229D02*
X0100652Y0103139D01*
X0100652Y0176800D01*
X0105652Y0181800D02*
X0105652Y0110639D01*
X0117561Y0101229D01*
X0117561Y0111229D02*
X0122581Y0111229D01*
X0128152Y0116800D01*
X0128152Y0129300D01*
X0128211Y0129359D01*
X0167306Y0129359D01*
X0178093Y0129359D01*
X0178152Y0129300D01*
X0178152Y0179300D01*
X0180652Y0181800D01*
X0194313Y0181800D01*
X0194628Y0181485D01*
X0180298Y0190658D02*
X0167306Y0180166D01*
X0167306Y0169359D01*
X0151617Y0170835D02*
X0151617Y0160107D01*
X0158152Y0153572D01*
X0158152Y0136800D01*
X0140652Y0121800D02*
X0191676Y0121800D01*
X0195317Y0118158D01*
X0195317Y0108158D02*
X0182010Y0108158D01*
X0170652Y0096800D01*
X0170652Y0061800D01*
X0175652Y0051800D02*
X0175652Y0091800D01*
X0182010Y0098158D01*
X0195317Y0098158D01*
X0195317Y0088158D02*
X0187010Y0088158D01*
X0180652Y0081800D01*
X0180652Y0041800D01*
X0117561Y0031229D02*
X0115632Y0029300D01*
X0100652Y0029300D01*
X0095652Y0034300D01*
X0095652Y0166800D01*
X0093152Y0169300D01*
X0073152Y0169300D01*
X0070829Y0171623D01*
X0070829Y0193276D01*
X0069806Y0194300D01*
X0045652Y0194300D01*
X0039117Y0187765D01*
X0037916Y0187765D01*
X0033191Y0178316D02*
X0033191Y0036839D01*
X0033152Y0031800D01*
X0042640Y0016249D02*
X0042640Y0057312D01*
X0038152Y0061800D01*
X0038152Y0096800D01*
X0043152Y0089300D02*
X0043152Y0071800D01*
X0068723Y0046229D01*
X0078152Y0046229D01*
X0083152Y0051229D01*
X0087561Y0051229D01*
X0078152Y0046229D02*
X0078152Y0019300D01*
X0080632Y0016820D01*
X0097876Y0016820D01*
X0087561Y0081229D02*
X0086223Y0081229D01*
X0075652Y0091800D01*
X0059431Y0091800D01*
X0058998Y0091367D01*
X0023152Y0091800D02*
X0015652Y0099300D01*
X0006892Y0099300D01*
X0006400Y0099792D01*
X0022817Y0091465D02*
X0023152Y0091800D01*
X0022817Y0091465D02*
X0022817Y0066190D01*
X0015652Y0070540D02*
X0006400Y0079792D01*
X0015652Y0070540D02*
X0015652Y0044300D01*
X0045652Y0129300D02*
X0075632Y0129300D01*
X0087561Y0141229D01*
X0110652Y0154300D02*
X0110652Y0186702D01*
X0108998Y0188355D01*
X0117561Y0186918D02*
X0117561Y0161229D01*
X0118132Y0161800D01*
X0125652Y0161800D01*
X0128152Y0159300D01*
X0135652Y0159300D01*
X0128152Y0159300D02*
X0128152Y0129300D01*
X0117561Y0151229D02*
X0113723Y0151229D01*
X0110652Y0154300D01*
X0140652Y0171800D02*
X0128152Y0184300D01*
X0128152Y0189300D01*
X0121597Y0195855D01*
X0113998Y0195855D01*
X0083408Y0195855D01*
X0080829Y0193276D01*
X0117561Y0186918D02*
X0118998Y0188355D01*
X0140652Y0171800D02*
X0150652Y0171800D01*
X0151617Y0170835D01*
D19*
X0158152Y0136800D03*
X0140652Y0121800D03*
X0100652Y0176800D03*
X0105652Y0181800D03*
X0045652Y0129300D03*
X0038152Y0096800D03*
X0043152Y0089300D03*
X0042640Y0057312D03*
X0033152Y0031800D03*
X0015652Y0044300D03*
X0170652Y0061800D03*
X0175652Y0051800D03*
X0180652Y0041800D03*
M02*
