G75*
%MOIN*%
%OFA0B0*%
%FSLAX25Y25*%
%IPPOS*%
%LPD*%
%AMOC8*
5,1,8,0,0,1.08239X$1,22.5*
%
%ADD10C,0.00000*%
%ADD11OC8,0.05200*%
%ADD12C,0.07400*%
%ADD13C,0.05200*%
%ADD14C,0.05150*%
%ADD15C,0.11220*%
%ADD16OC8,0.06200*%
%ADD17C,0.06200*%
%ADD18C,0.01600*%
%ADD19R,0.03962X0.03962*%
D10*
X0003152Y0004300D02*
X0003152Y0201150D01*
X0200002Y0201150D01*
X0200002Y0004300D01*
X0003152Y0004300D01*
D11*
X0022817Y0026190D03*
X0022817Y0066190D03*
X0068152Y0051800D03*
X0068152Y0041800D03*
X0097876Y0016820D03*
X0107876Y0016820D03*
X0123191Y0015757D03*
X0163191Y0015757D03*
X0167306Y0129359D03*
X0151617Y0150107D03*
X0151617Y0160107D03*
X0135652Y0159300D03*
X0135652Y0149300D03*
X0167306Y0169359D03*
X0146498Y0190737D03*
X0136498Y0190737D03*
X0118998Y0188355D03*
X0113998Y0195855D03*
X0108998Y0188355D03*
D12*
X0090829Y0193276D03*
X0080829Y0193276D03*
X0070829Y0193276D03*
X0060829Y0193276D03*
X0050829Y0193276D03*
X0006400Y0139792D03*
X0006400Y0129792D03*
X0006400Y0119792D03*
X0006400Y0109792D03*
X0006400Y0099792D03*
X0006400Y0089792D03*
X0006400Y0079792D03*
X0006400Y0069792D03*
X0058998Y0071367D03*
X0058998Y0081367D03*
X0058998Y0091367D03*
X0042640Y0016249D03*
X0022640Y0016249D03*
X0194628Y0151485D03*
X0194628Y0161485D03*
X0194628Y0171485D03*
X0194628Y0181485D03*
X0194628Y0191485D03*
X0180298Y0190658D03*
X0160298Y0190658D03*
X0195317Y0138158D03*
X0195317Y0128158D03*
X0195317Y0118158D03*
X0195317Y0108158D03*
X0195317Y0098158D03*
X0195317Y0088158D03*
X0195317Y0078158D03*
X0195317Y0068158D03*
D13*
X0120161Y0071229D02*
X0114961Y0071229D01*
X0114961Y0061229D02*
X0120161Y0061229D01*
X0120161Y0051229D02*
X0114961Y0051229D01*
X0114961Y0041229D02*
X0120161Y0041229D01*
X0120161Y0031229D02*
X0114961Y0031229D01*
X0090161Y0031229D02*
X0084961Y0031229D01*
X0084961Y0041229D02*
X0090161Y0041229D01*
X0090161Y0051229D02*
X0084961Y0051229D01*
X0084961Y0061229D02*
X0090161Y0061229D01*
X0090161Y0071229D02*
X0084961Y0071229D01*
X0084961Y0081229D02*
X0090161Y0081229D01*
X0090161Y0091229D02*
X0084961Y0091229D01*
X0084961Y0101229D02*
X0090161Y0101229D01*
X0090161Y0111229D02*
X0084961Y0111229D01*
X0084961Y0121229D02*
X0090161Y0121229D01*
X0090161Y0131229D02*
X0084961Y0131229D01*
X0084961Y0141229D02*
X0090161Y0141229D01*
X0090161Y0151229D02*
X0084961Y0151229D01*
X0084961Y0161229D02*
X0090161Y0161229D01*
X0114961Y0161229D02*
X0120161Y0161229D01*
X0120161Y0151229D02*
X0114961Y0151229D01*
X0114961Y0141229D02*
X0120161Y0141229D01*
X0120161Y0131229D02*
X0114961Y0131229D01*
X0114961Y0121229D02*
X0120161Y0121229D01*
X0120161Y0111229D02*
X0114961Y0111229D01*
X0114961Y0101229D02*
X0120161Y0101229D01*
X0120161Y0091229D02*
X0114961Y0091229D01*
X0114961Y0081229D02*
X0120161Y0081229D01*
D14*
X0037916Y0175166D03*
X0033191Y0178316D03*
X0037916Y0181465D03*
X0033191Y0184615D03*
X0037916Y0187765D03*
D15*
X0017837Y0195835D03*
X0017837Y0167095D03*
D16*
X0143152Y0081800D03*
D17*
X0133152Y0081800D03*
D18*
X0118132Y0081800D01*
X0117561Y0081229D01*
X0114126Y0077029D02*
X0120997Y0077029D01*
X0122541Y0077669D01*
X0123722Y0078850D01*
X0123950Y0079400D01*
X0129059Y0079400D01*
X0129167Y0079138D01*
X0130490Y0077816D01*
X0132217Y0077100D01*
X0134087Y0077100D01*
X0135814Y0077816D01*
X0137136Y0079138D01*
X0137852Y0080865D01*
X0137852Y0082735D01*
X0137136Y0084462D01*
X0135814Y0085784D01*
X0134087Y0086500D01*
X0132217Y0086500D01*
X0130490Y0085784D01*
X0129167Y0084462D01*
X0129059Y0084200D01*
X0123130Y0084200D01*
X0122541Y0084790D01*
X0120997Y0085429D01*
X0114126Y0085429D01*
X0112582Y0084790D01*
X0111401Y0083608D01*
X0110761Y0082065D01*
X0110761Y0080394D01*
X0111401Y0078850D01*
X0112582Y0077669D01*
X0114126Y0077029D01*
X0114615Y0075629D02*
X0113931Y0075521D01*
X0113272Y0075307D01*
X0112655Y0074992D01*
X0112095Y0074585D01*
X0111605Y0074096D01*
X0111198Y0073535D01*
X0110884Y0072918D01*
X0110670Y0072259D01*
X0110561Y0071575D01*
X0110561Y0071229D01*
X0110561Y0070883D01*
X0110670Y0070199D01*
X0110884Y0069540D01*
X0111198Y0068923D01*
X0111605Y0068363D01*
X0112095Y0067873D01*
X0112655Y0067466D01*
X0113272Y0067151D01*
X0113931Y0066937D01*
X0114615Y0066829D01*
X0117561Y0066829D01*
X0117561Y0071229D01*
X0110561Y0071229D01*
X0117561Y0071229D01*
X0117561Y0071229D01*
X0117561Y0071229D01*
X0117561Y0075629D01*
X0114615Y0075629D01*
X0112163Y0074634D02*
X0108052Y0074634D01*
X0108052Y0073036D02*
X0110944Y0073036D01*
X0110561Y0071437D02*
X0108052Y0071437D01*
X0108052Y0069839D02*
X0110787Y0069839D01*
X0111728Y0068240D02*
X0108052Y0068240D01*
X0108052Y0066642D02*
X0190209Y0066642D01*
X0190017Y0067104D02*
X0190824Y0065156D01*
X0192315Y0063665D01*
X0194263Y0062858D01*
X0195202Y0062858D01*
X0195202Y0009100D01*
X0007952Y0009100D01*
X0007952Y0064513D01*
X0008511Y0064695D01*
X0009283Y0065088D01*
X0009983Y0065597D01*
X0010595Y0066209D01*
X0011104Y0066909D01*
X0011497Y0067681D01*
X0011765Y0068504D01*
X0011900Y0069359D01*
X0011900Y0069592D01*
X0007952Y0069592D01*
X0007952Y0069992D01*
X0011900Y0069992D01*
X0011900Y0070225D01*
X0011765Y0071080D01*
X0011497Y0071903D01*
X0011104Y0072675D01*
X0010595Y0073375D01*
X0009983Y0073987D01*
X0009283Y0074496D01*
X0008511Y0074889D01*
X0008456Y0074907D01*
X0009402Y0075299D01*
X0010893Y0076790D01*
X0011700Y0078738D01*
X0011700Y0080846D01*
X0010893Y0082794D01*
X0009402Y0084285D01*
X0008178Y0084792D01*
X0009402Y0085299D01*
X0010893Y0086790D01*
X0010939Y0086900D01*
X0039571Y0086900D01*
X0039571Y0086656D01*
X0040508Y0085719D01*
X0045796Y0085719D01*
X0046733Y0086656D01*
X0046733Y0091944D01*
X0045796Y0092881D01*
X0040508Y0092881D01*
X0039571Y0091944D01*
X0039571Y0091700D01*
X0011346Y0091700D01*
X0010893Y0092794D01*
X0009402Y0094285D01*
X0009125Y0094400D01*
X0034571Y0094400D01*
X0034571Y0094156D01*
X0035508Y0093219D01*
X0040796Y0093219D01*
X0041733Y0094156D01*
X0041733Y0099444D01*
X0040796Y0100381D01*
X0035508Y0100381D01*
X0034571Y0099444D01*
X0034571Y0099200D01*
X0011700Y0099200D01*
X0011700Y0100846D01*
X0010893Y0102794D01*
X0009402Y0104285D01*
X0008178Y0104792D01*
X0009402Y0105299D01*
X0010893Y0106790D01*
X0011700Y0108738D01*
X0011700Y0109400D01*
X0037158Y0109400D01*
X0047363Y0099195D01*
X0048245Y0098829D01*
X0081422Y0098829D01*
X0082582Y0097669D01*
X0084126Y0097029D01*
X0090997Y0097029D01*
X0092541Y0097669D01*
X0093722Y0098850D01*
X0094361Y0100394D01*
X0094361Y0102065D01*
X0093722Y0103608D01*
X0092541Y0104790D01*
X0090997Y0105429D01*
X0084126Y0105429D01*
X0082582Y0104790D01*
X0081422Y0103629D01*
X0049717Y0103629D01*
X0040187Y0113159D01*
X0039511Y0113835D01*
X0038629Y0114200D01*
X0009487Y0114200D01*
X0009402Y0114285D01*
X0008178Y0114792D01*
X0009402Y0115299D01*
X0010893Y0116790D01*
X0011143Y0117392D01*
X0041666Y0117392D01*
X0048617Y0110441D01*
X0049292Y0109765D01*
X0050175Y0109400D01*
X0081173Y0109400D01*
X0081401Y0108850D01*
X0082582Y0107669D01*
X0084126Y0107029D01*
X0090997Y0107029D01*
X0092541Y0107669D01*
X0093722Y0108850D01*
X0094361Y0110394D01*
X0094361Y0112065D01*
X0093722Y0113608D01*
X0092541Y0114790D01*
X0090997Y0115429D01*
X0084126Y0115429D01*
X0082582Y0114790D01*
X0081993Y0114200D01*
X0051646Y0114200D01*
X0044019Y0121827D01*
X0043137Y0122192D01*
X0011143Y0122192D01*
X0010893Y0122794D01*
X0009402Y0124285D01*
X0008178Y0124792D01*
X0009402Y0125299D01*
X0010893Y0126790D01*
X0011143Y0127392D01*
X0042071Y0127392D01*
X0042071Y0126656D01*
X0043008Y0125719D01*
X0048296Y0125719D01*
X0049233Y0126656D01*
X0049233Y0131944D01*
X0048296Y0132881D01*
X0043008Y0132881D01*
X0042319Y0132192D01*
X0011143Y0132192D01*
X0010893Y0132794D01*
X0009402Y0134285D01*
X0008178Y0134792D01*
X0009402Y0135299D01*
X0010893Y0136790D01*
X0011143Y0137392D01*
X0076602Y0137392D01*
X0077484Y0137758D01*
X0080761Y0141035D01*
X0080761Y0140394D01*
X0081401Y0138850D01*
X0082582Y0137669D01*
X0084126Y0137029D01*
X0089967Y0137029D01*
X0088367Y0135429D01*
X0084126Y0135429D01*
X0082582Y0134790D01*
X0081401Y0133608D01*
X0080761Y0132065D01*
X0080761Y0130394D01*
X0081401Y0128850D01*
X0082582Y0127669D01*
X0084126Y0127029D01*
X0090997Y0127029D01*
X0092541Y0127669D01*
X0093722Y0128850D01*
X0094361Y0130394D01*
X0094361Y0132065D01*
X0093722Y0133608D01*
X0093528Y0133802D01*
X0094126Y0134400D01*
X0101129Y0134400D01*
X0102011Y0134765D01*
X0102687Y0135441D01*
X0105187Y0137941D01*
X0105552Y0138823D01*
X0105552Y0158306D01*
X0106331Y0159085D01*
X0111303Y0159085D01*
X0111401Y0158850D01*
X0112582Y0157669D01*
X0114126Y0157029D01*
X0120997Y0157029D01*
X0122541Y0157669D01*
X0123722Y0158850D01*
X0123819Y0159085D01*
X0131452Y0159085D01*
X0131452Y0157560D01*
X0133912Y0155100D01*
X0137392Y0155100D01*
X0139852Y0157560D01*
X0139852Y0159085D01*
X0147417Y0159085D01*
X0147417Y0158367D01*
X0149877Y0155907D01*
X0153356Y0155907D01*
X0155817Y0158367D01*
X0155817Y0159085D01*
X0189886Y0159085D01*
X0190135Y0158483D01*
X0191626Y0156992D01*
X0192850Y0156485D01*
X0191626Y0155978D01*
X0190135Y0154487D01*
X0189886Y0153885D01*
X0154061Y0153885D01*
X0153439Y0154507D01*
X0151617Y0154507D01*
X0151617Y0153885D01*
X0151616Y0153885D01*
X0151616Y0154507D01*
X0149794Y0154507D01*
X0149172Y0153885D01*
X0123670Y0153885D01*
X0123518Y0154096D01*
X0123028Y0154585D01*
X0122468Y0154992D01*
X0121850Y0155307D01*
X0121192Y0155521D01*
X0120508Y0155629D01*
X0117561Y0155629D01*
X0114615Y0155629D01*
X0113931Y0155521D01*
X0113272Y0155307D01*
X0112655Y0154992D01*
X0112095Y0154585D01*
X0111605Y0154096D01*
X0111452Y0153885D01*
X0109860Y0153885D01*
X0108978Y0153520D01*
X0106792Y0151335D01*
X0106117Y0150659D01*
X0105752Y0149777D01*
X0105752Y0132794D01*
X0097158Y0124200D01*
X0093130Y0124200D01*
X0092541Y0124790D01*
X0090997Y0125429D01*
X0084126Y0125429D01*
X0082582Y0124790D01*
X0081401Y0123608D01*
X0080761Y0122065D01*
X0080761Y0120394D01*
X0081401Y0118850D01*
X0082582Y0117669D01*
X0084126Y0117029D01*
X0090997Y0117029D01*
X0092541Y0117669D01*
X0093722Y0118850D01*
X0093950Y0119400D01*
X0098629Y0119400D01*
X0099511Y0119765D01*
X0100187Y0120441D01*
X0110187Y0130441D01*
X0110552Y0131323D01*
X0110552Y0148306D01*
X0111188Y0148942D01*
X0111198Y0148923D01*
X0111605Y0148363D01*
X0112095Y0147873D01*
X0112655Y0147466D01*
X0113272Y0147151D01*
X0113931Y0146937D01*
X0114615Y0146829D01*
X0117561Y0146829D01*
X0117561Y0149085D01*
X0117561Y0149085D01*
X0117561Y0146829D01*
X0120508Y0146829D01*
X0121192Y0146937D01*
X0121850Y0147151D01*
X0122468Y0147466D01*
X0123028Y0147873D01*
X0123518Y0148363D01*
X0123925Y0148923D01*
X0124007Y0149085D01*
X0131252Y0149085D01*
X0131252Y0147477D01*
X0133829Y0144900D01*
X0135652Y0144900D01*
X0137474Y0144900D01*
X0140052Y0147477D01*
X0140052Y0149085D01*
X0147217Y0149085D01*
X0147217Y0148285D01*
X0149794Y0145707D01*
X0151616Y0145707D01*
X0151616Y0149085D01*
X0151617Y0149085D01*
X0151617Y0145707D01*
X0153439Y0145707D01*
X0156017Y0148285D01*
X0156017Y0149085D01*
X0189886Y0149085D01*
X0190135Y0148483D01*
X0191626Y0146992D01*
X0193574Y0146185D01*
X0195202Y0146185D01*
X0195202Y0143458D01*
X0194263Y0143458D01*
X0193661Y0143209D01*
X0193606Y0143264D01*
X0192724Y0143629D01*
X0123701Y0143629D01*
X0122541Y0144790D01*
X0120997Y0145429D01*
X0114126Y0145429D01*
X0112582Y0144790D01*
X0111401Y0143608D01*
X0110761Y0142065D01*
X0110761Y0140394D01*
X0111401Y0138850D01*
X0112582Y0137669D01*
X0114126Y0137029D01*
X0120997Y0137029D01*
X0122541Y0137669D01*
X0123701Y0138829D01*
X0154571Y0138829D01*
X0154571Y0134156D01*
X0155098Y0133629D01*
X0123701Y0133629D01*
X0122541Y0134790D01*
X0120997Y0135429D01*
X0114126Y0135429D01*
X0112582Y0134790D01*
X0111401Y0133608D01*
X0110761Y0132065D01*
X0110761Y0130394D01*
X0111401Y0128850D01*
X0112582Y0127669D01*
X0114126Y0127029D01*
X0120997Y0127029D01*
X0122541Y0127669D01*
X0123701Y0128829D01*
X0155752Y0128829D01*
X0155752Y0098823D01*
X0156117Y0097941D01*
X0173252Y0080806D01*
X0173252Y0078823D01*
X0173617Y0077941D01*
X0174759Y0076799D01*
X0175434Y0076124D01*
X0176316Y0075758D01*
X0190575Y0075758D01*
X0190824Y0075156D01*
X0192315Y0073665D01*
X0193539Y0073158D01*
X0192315Y0072651D01*
X0190824Y0071160D01*
X0190017Y0069213D01*
X0190017Y0067104D01*
X0190017Y0068240D02*
X0123395Y0068240D01*
X0123518Y0068363D02*
X0123925Y0068923D01*
X0124239Y0069540D01*
X0124453Y0070199D01*
X0124561Y0070883D01*
X0124561Y0071229D01*
X0117562Y0071229D01*
X0117562Y0071229D01*
X0124561Y0071229D01*
X0124561Y0071575D01*
X0124453Y0072259D01*
X0124239Y0072918D01*
X0123925Y0073535D01*
X0123518Y0074096D01*
X0123028Y0074585D01*
X0122468Y0074992D01*
X0121850Y0075307D01*
X0121192Y0075521D01*
X0120508Y0075629D01*
X0117561Y0075629D01*
X0117561Y0071229D01*
X0117561Y0071229D01*
X0117561Y0066829D01*
X0120508Y0066829D01*
X0121192Y0066937D01*
X0121850Y0067151D01*
X0122468Y0067466D01*
X0123028Y0067873D01*
X0123518Y0068363D01*
X0124336Y0069839D02*
X0190277Y0069839D01*
X0191101Y0071437D02*
X0124561Y0071437D01*
X0124179Y0073036D02*
X0193244Y0073036D01*
X0191346Y0074634D02*
X0122960Y0074634D01*
X0122703Y0077832D02*
X0130474Y0077832D01*
X0135830Y0077832D02*
X0140191Y0077832D01*
X0141122Y0076900D02*
X0143152Y0076900D01*
X0145182Y0076900D01*
X0148052Y0079770D01*
X0148052Y0081800D01*
X0148052Y0083830D01*
X0145182Y0086700D01*
X0143152Y0086700D01*
X0143152Y0081800D01*
X0148052Y0081800D01*
X0143152Y0081800D01*
X0143152Y0081800D01*
X0143152Y0081800D01*
X0143152Y0076900D01*
X0143152Y0081800D01*
X0143152Y0081800D01*
X0143152Y0086700D01*
X0141122Y0086700D01*
X0138252Y0083830D01*
X0138252Y0081800D01*
X0143152Y0081800D01*
X0143152Y0081800D01*
X0138252Y0081800D01*
X0138252Y0079770D01*
X0141122Y0076900D01*
X0143152Y0077832D02*
X0143152Y0077832D01*
X0143152Y0079430D02*
X0143152Y0079430D01*
X0143152Y0081029D02*
X0143152Y0081029D01*
X0143152Y0082627D02*
X0143152Y0082627D01*
X0143152Y0084226D02*
X0143152Y0084226D01*
X0143152Y0085824D02*
X0143152Y0085824D01*
X0140246Y0085824D02*
X0135719Y0085824D01*
X0137235Y0084226D02*
X0138648Y0084226D01*
X0138252Y0082627D02*
X0137852Y0082627D01*
X0137852Y0081029D02*
X0138252Y0081029D01*
X0138592Y0079430D02*
X0137258Y0079430D01*
X0130585Y0085824D02*
X0108052Y0085824D01*
X0108052Y0084226D02*
X0112018Y0084226D01*
X0110994Y0082627D02*
X0108052Y0082627D01*
X0108052Y0081029D02*
X0110761Y0081029D01*
X0111161Y0079430D02*
X0108052Y0079430D01*
X0108052Y0077832D02*
X0112419Y0077832D01*
X0108052Y0076233D02*
X0175325Y0076233D01*
X0173726Y0077832D02*
X0146113Y0077832D01*
X0147712Y0079430D02*
X0173252Y0079430D01*
X0173029Y0081029D02*
X0148052Y0081029D01*
X0148052Y0082627D02*
X0171431Y0082627D01*
X0169832Y0084226D02*
X0147656Y0084226D01*
X0146058Y0085824D02*
X0168234Y0085824D01*
X0166635Y0087423D02*
X0121947Y0087423D01*
X0122541Y0087669D02*
X0123722Y0088850D01*
X0124361Y0090394D01*
X0124361Y0092065D01*
X0123722Y0093608D01*
X0122541Y0094790D01*
X0120997Y0095429D01*
X0114126Y0095429D01*
X0112582Y0094790D01*
X0111401Y0093608D01*
X0110761Y0092065D01*
X0110761Y0090394D01*
X0111401Y0088850D01*
X0112582Y0087669D01*
X0114126Y0087029D01*
X0120997Y0087029D01*
X0122541Y0087669D01*
X0123793Y0089021D02*
X0165037Y0089021D01*
X0163438Y0090620D02*
X0124361Y0090620D01*
X0124298Y0092218D02*
X0161840Y0092218D01*
X0160241Y0093817D02*
X0123514Y0093817D01*
X0121031Y0095415D02*
X0158643Y0095415D01*
X0157044Y0097014D02*
X0108052Y0097014D01*
X0108052Y0098612D02*
X0111639Y0098612D01*
X0111401Y0098850D02*
X0112582Y0097669D01*
X0114126Y0097029D01*
X0120997Y0097029D01*
X0122541Y0097669D01*
X0123722Y0098850D01*
X0124361Y0100394D01*
X0124361Y0102065D01*
X0123722Y0103608D01*
X0122541Y0104790D01*
X0120997Y0105429D01*
X0114126Y0105429D01*
X0112582Y0104790D01*
X0111401Y0103608D01*
X0110761Y0102065D01*
X0110761Y0100394D01*
X0111401Y0098850D01*
X0110837Y0100211D02*
X0108052Y0100211D01*
X0108052Y0101809D02*
X0110761Y0101809D01*
X0111318Y0103408D02*
X0108052Y0103408D01*
X0108052Y0105006D02*
X0113105Y0105006D01*
X0114126Y0107029D02*
X0120997Y0107029D01*
X0122541Y0107669D01*
X0123722Y0108850D01*
X0124361Y0110394D01*
X0124361Y0112065D01*
X0123722Y0113608D01*
X0122541Y0114790D01*
X0120997Y0115429D01*
X0114126Y0115429D01*
X0112582Y0114790D01*
X0111993Y0114200D01*
X0110175Y0114200D01*
X0109292Y0113835D01*
X0108617Y0113159D01*
X0104292Y0108835D01*
X0103617Y0108159D01*
X0103252Y0107277D01*
X0103252Y0047794D01*
X0099658Y0044200D01*
X0093130Y0044200D01*
X0092541Y0044790D01*
X0090997Y0045429D01*
X0084126Y0045429D01*
X0082582Y0044790D01*
X0081993Y0044200D01*
X0071692Y0044200D01*
X0069892Y0046000D01*
X0066412Y0046000D01*
X0064612Y0044200D01*
X0019233Y0044200D01*
X0019233Y0046944D01*
X0018296Y0047881D01*
X0013008Y0047881D01*
X0012071Y0046944D01*
X0012071Y0041656D01*
X0013008Y0040719D01*
X0015839Y0040719D01*
X0016117Y0040441D01*
X0016792Y0039765D01*
X0017675Y0039400D01*
X0064612Y0039400D01*
X0066412Y0037600D01*
X0069892Y0037600D01*
X0071692Y0039400D01*
X0081173Y0039400D01*
X0081401Y0038850D01*
X0082582Y0037669D01*
X0084126Y0037029D01*
X0090997Y0037029D01*
X0092541Y0037669D01*
X0093722Y0038850D01*
X0093950Y0039400D01*
X0101129Y0039400D01*
X0102011Y0039765D01*
X0107011Y0044765D01*
X0107687Y0045441D01*
X0108052Y0046323D01*
X0108052Y0105806D01*
X0111312Y0109066D01*
X0111401Y0108850D01*
X0112582Y0107669D01*
X0114126Y0107029D01*
X0112048Y0108203D02*
X0110449Y0108203D01*
X0108851Y0106605D02*
X0155752Y0106605D01*
X0155752Y0108203D02*
X0123075Y0108203D01*
X0124116Y0109802D02*
X0155752Y0109802D01*
X0155752Y0111400D02*
X0124361Y0111400D01*
X0123974Y0112999D02*
X0155752Y0112999D01*
X0155752Y0114597D02*
X0122733Y0114597D01*
X0120997Y0117029D02*
X0122541Y0117669D01*
X0123701Y0118829D01*
X0137398Y0118829D01*
X0138008Y0118219D01*
X0143296Y0118219D01*
X0144233Y0119156D01*
X0144233Y0124444D01*
X0143296Y0125381D01*
X0138008Y0125381D01*
X0137071Y0124444D01*
X0137071Y0123629D01*
X0123701Y0123629D01*
X0122541Y0124790D01*
X0120997Y0125429D01*
X0114126Y0125429D01*
X0112582Y0124790D01*
X0111401Y0123608D01*
X0110761Y0122065D01*
X0110761Y0120394D01*
X0111401Y0118850D01*
X0112582Y0117669D01*
X0114126Y0117029D01*
X0120997Y0117029D01*
X0122666Y0117794D02*
X0155752Y0117794D01*
X0155752Y0116196D02*
X0049650Y0116196D01*
X0048052Y0117794D02*
X0082457Y0117794D01*
X0081176Y0119393D02*
X0046453Y0119393D01*
X0044855Y0120991D02*
X0080761Y0120991D01*
X0080979Y0122590D02*
X0010978Y0122590D01*
X0009499Y0124188D02*
X0081981Y0124188D01*
X0083266Y0127385D02*
X0049233Y0127385D01*
X0049233Y0128984D02*
X0081345Y0128984D01*
X0080761Y0130582D02*
X0049233Y0130582D01*
X0048996Y0132181D02*
X0080810Y0132181D01*
X0081572Y0133779D02*
X0009908Y0133779D01*
X0009481Y0135378D02*
X0084002Y0135378D01*
X0081676Y0138575D02*
X0078301Y0138575D01*
X0079900Y0140173D02*
X0080853Y0140173D01*
X0076124Y0139792D02*
X0087561Y0151229D01*
X0086756Y0147029D02*
X0090997Y0147029D01*
X0092541Y0147669D01*
X0093722Y0148850D01*
X0094361Y0150394D01*
X0094361Y0152065D01*
X0093722Y0153608D01*
X0092541Y0154790D01*
X0090997Y0155429D01*
X0084126Y0155429D01*
X0082582Y0154790D01*
X0081401Y0153608D01*
X0080761Y0152065D01*
X0080761Y0150394D01*
X0081401Y0148850D01*
X0081595Y0148656D01*
X0075130Y0142192D01*
X0011143Y0142192D01*
X0010893Y0142794D01*
X0009402Y0144285D01*
X0007952Y0144886D01*
X0007952Y0196350D01*
X0010627Y0196350D01*
X0010627Y0194401D01*
X0011724Y0191751D01*
X0013753Y0189723D01*
X0016403Y0188625D01*
X0019271Y0188625D01*
X0021921Y0189723D01*
X0023950Y0191751D01*
X0025047Y0194401D01*
X0025047Y0196350D01*
X0046408Y0196350D01*
X0046336Y0196279D01*
X0045529Y0194331D01*
X0045529Y0192222D01*
X0046336Y0190274D01*
X0047827Y0188783D01*
X0049775Y0187976D01*
X0051883Y0187976D01*
X0053831Y0188783D01*
X0055322Y0190274D01*
X0055829Y0191498D01*
X0056336Y0190274D01*
X0057827Y0188783D01*
X0059775Y0187976D01*
X0061883Y0187976D01*
X0063831Y0188783D01*
X0065322Y0190274D01*
X0065829Y0191498D01*
X0066336Y0190274D01*
X0067827Y0188783D01*
X0069775Y0187976D01*
X0071883Y0187976D01*
X0073831Y0188783D01*
X0075322Y0190274D01*
X0075829Y0191498D01*
X0076336Y0190274D01*
X0077827Y0188783D01*
X0079775Y0187976D01*
X0081883Y0187976D01*
X0083831Y0188783D01*
X0085322Y0190274D01*
X0085829Y0191498D01*
X0086336Y0190274D01*
X0087827Y0188783D01*
X0089775Y0187976D01*
X0091883Y0187976D01*
X0093831Y0188783D01*
X0095322Y0190274D01*
X0096129Y0192222D01*
X0096129Y0194331D01*
X0095322Y0196279D01*
X0095250Y0196350D01*
X0109798Y0196350D01*
X0109798Y0194115D01*
X0112259Y0191655D01*
X0115738Y0191655D01*
X0118198Y0194115D01*
X0118198Y0196350D01*
X0192525Y0196350D01*
X0191626Y0195978D01*
X0190834Y0195186D01*
X0184514Y0193937D01*
X0183300Y0195151D01*
X0181352Y0195958D01*
X0179243Y0195958D01*
X0177295Y0195151D01*
X0175805Y0193660D01*
X0174998Y0191712D01*
X0174998Y0189604D01*
X0175805Y0187656D01*
X0177295Y0186165D01*
X0179243Y0185358D01*
X0181352Y0185358D01*
X0183300Y0186165D01*
X0184791Y0187656D01*
X0185442Y0189228D01*
X0189495Y0190028D01*
X0190135Y0188483D01*
X0191626Y0186992D01*
X0192850Y0186485D01*
X0191626Y0185978D01*
X0190135Y0184487D01*
X0189328Y0182539D01*
X0189328Y0180431D01*
X0190135Y0178483D01*
X0191626Y0176992D01*
X0192572Y0176600D01*
X0192517Y0176582D01*
X0191746Y0176189D01*
X0191045Y0175680D01*
X0190433Y0175068D01*
X0189924Y0174368D01*
X0189531Y0173596D01*
X0189264Y0172773D01*
X0189128Y0171918D01*
X0189128Y0171685D01*
X0194428Y0171685D01*
X0194428Y0171285D01*
X0189128Y0171285D01*
X0189128Y0171052D01*
X0189264Y0170197D01*
X0189531Y0169374D01*
X0189924Y0168602D01*
X0190433Y0167902D01*
X0191045Y0167290D01*
X0191746Y0166781D01*
X0192517Y0166388D01*
X0192572Y0166370D01*
X0191626Y0165978D01*
X0190135Y0164487D01*
X0189886Y0163885D01*
X0153778Y0163885D01*
X0153356Y0164307D01*
X0149877Y0164307D01*
X0149455Y0163885D01*
X0123445Y0163885D01*
X0122541Y0164790D01*
X0120997Y0165429D01*
X0114126Y0165429D01*
X0112582Y0164790D01*
X0111678Y0163885D01*
X0104860Y0163885D01*
X0103978Y0163520D01*
X0101792Y0161335D01*
X0101117Y0160659D01*
X0100752Y0159777D01*
X0100752Y0140294D01*
X0099658Y0139200D01*
X0093867Y0139200D01*
X0094361Y0140394D01*
X0094361Y0142065D01*
X0093722Y0143608D01*
X0092541Y0144790D01*
X0090997Y0145429D01*
X0085155Y0145429D01*
X0086756Y0147029D01*
X0086294Y0146568D02*
X0100752Y0146568D01*
X0100752Y0148166D02*
X0093038Y0148166D01*
X0094101Y0149765D02*
X0100752Y0149765D01*
X0100752Y0151363D02*
X0094361Y0151363D01*
X0093990Y0152962D02*
X0100752Y0152962D01*
X0100752Y0154560D02*
X0092770Y0154560D01*
X0090997Y0157029D02*
X0092541Y0157669D01*
X0093722Y0158850D01*
X0094361Y0160394D01*
X0094361Y0162065D01*
X0093722Y0163608D01*
X0093528Y0163802D01*
X0096626Y0166900D01*
X0163825Y0166900D01*
X0165566Y0165159D01*
X0169045Y0165159D01*
X0171505Y0167619D01*
X0171505Y0171099D01*
X0169045Y0173559D01*
X0165566Y0173559D01*
X0163707Y0171700D01*
X0095155Y0171700D01*
X0094273Y0171335D01*
X0088367Y0165429D01*
X0084126Y0165429D01*
X0082582Y0164790D01*
X0081401Y0163608D01*
X0080761Y0162065D01*
X0080761Y0160394D01*
X0081401Y0158850D01*
X0082582Y0157669D01*
X0084126Y0157029D01*
X0090997Y0157029D01*
X0092629Y0157757D02*
X0100752Y0157757D01*
X0100752Y0156159D02*
X0007952Y0156159D01*
X0007952Y0157757D02*
X0082494Y0157757D01*
X0081191Y0159356D02*
X0007952Y0159356D01*
X0007952Y0160954D02*
X0013822Y0160954D01*
X0013753Y0160983D02*
X0016403Y0159885D01*
X0019271Y0159885D01*
X0021921Y0160983D01*
X0023950Y0163011D01*
X0025047Y0165661D01*
X0025047Y0168529D01*
X0023950Y0171180D01*
X0021921Y0173208D01*
X0019271Y0174305D01*
X0016403Y0174305D01*
X0013753Y0173208D01*
X0011724Y0171180D01*
X0010627Y0168529D01*
X0010627Y0165661D01*
X0011724Y0163011D01*
X0013753Y0160983D01*
X0012183Y0162553D02*
X0007952Y0162553D01*
X0007952Y0164151D02*
X0011252Y0164151D01*
X0010627Y0165750D02*
X0007952Y0165750D01*
X0007952Y0167348D02*
X0010627Y0167348D01*
X0010800Y0168947D02*
X0007952Y0168947D01*
X0007952Y0170545D02*
X0011462Y0170545D01*
X0012689Y0172144D02*
X0007952Y0172144D01*
X0007952Y0173742D02*
X0015043Y0173742D01*
X0020631Y0173742D02*
X0033778Y0173742D01*
X0033861Y0173487D02*
X0034174Y0172873D01*
X0034579Y0172316D01*
X0035066Y0171829D01*
X0035623Y0171424D01*
X0036236Y0171112D01*
X0036891Y0170899D01*
X0037571Y0170791D01*
X0037916Y0170791D01*
X0038260Y0170791D01*
X0038940Y0170899D01*
X0039595Y0171112D01*
X0040209Y0171424D01*
X0040766Y0171829D01*
X0041253Y0172316D01*
X0041657Y0172873D01*
X0041970Y0173487D01*
X0042183Y0174142D01*
X0042291Y0174822D01*
X0042291Y0175166D01*
X0037916Y0175166D01*
X0037916Y0175166D01*
X0037916Y0170791D01*
X0037916Y0175166D01*
X0037916Y0175166D01*
X0042291Y0175166D01*
X0042291Y0175510D01*
X0042183Y0176191D01*
X0041970Y0176845D01*
X0041657Y0177459D01*
X0041253Y0178016D01*
X0040812Y0178457D01*
X0041420Y0179065D01*
X0042492Y0179065D01*
X0046117Y0175441D01*
X0046792Y0174765D01*
X0047675Y0174400D01*
X0097071Y0174400D01*
X0097071Y0174156D01*
X0098008Y0173219D01*
X0103296Y0173219D01*
X0104233Y0174156D01*
X0104233Y0178219D01*
X0108296Y0178219D01*
X0109233Y0179156D01*
X0109233Y0183955D01*
X0110821Y0183955D01*
X0113398Y0186533D01*
X0113398Y0188355D01*
X0108999Y0188355D01*
X0108999Y0188355D01*
X0113398Y0188355D01*
X0113398Y0190178D01*
X0110821Y0192755D01*
X0108998Y0192755D01*
X0107176Y0192755D01*
X0104598Y0190178D01*
X0104598Y0188355D01*
X0104598Y0186533D01*
X0105750Y0185381D01*
X0103008Y0185381D01*
X0102071Y0184444D01*
X0102071Y0184200D01*
X0051646Y0184200D01*
X0049196Y0186650D01*
X0048314Y0187015D01*
X0042091Y0187015D01*
X0042091Y0188595D01*
X0041455Y0190129D01*
X0040281Y0191304D01*
X0038746Y0191939D01*
X0037085Y0191939D01*
X0035551Y0191304D01*
X0034377Y0190129D01*
X0033822Y0188790D01*
X0032361Y0188790D01*
X0030827Y0188154D01*
X0029652Y0186980D01*
X0029017Y0185445D01*
X0029017Y0183785D01*
X0029652Y0182250D01*
X0030437Y0181465D01*
X0029652Y0180681D01*
X0029017Y0179146D01*
X0029017Y0177485D01*
X0029652Y0175951D01*
X0030827Y0174777D01*
X0032361Y0174141D01*
X0033649Y0174141D01*
X0033861Y0173487D01*
X0034751Y0172144D02*
X0022985Y0172144D01*
X0024212Y0170545D02*
X0093483Y0170545D01*
X0091885Y0168947D02*
X0024874Y0168947D01*
X0025047Y0167348D02*
X0090286Y0167348D01*
X0088688Y0165750D02*
X0025047Y0165750D01*
X0024422Y0164151D02*
X0081944Y0164151D01*
X0080964Y0162553D02*
X0023491Y0162553D01*
X0021852Y0160954D02*
X0080761Y0160954D01*
X0087561Y0161229D02*
X0095632Y0169300D01*
X0167246Y0169300D01*
X0167306Y0169359D01*
X0164150Y0172144D02*
X0041080Y0172144D01*
X0042053Y0173742D02*
X0097485Y0173742D01*
X0100652Y0176800D02*
X0048152Y0176800D01*
X0043487Y0181465D01*
X0037916Y0181465D01*
X0040892Y0178538D02*
X0043020Y0178538D01*
X0041922Y0176939D02*
X0044619Y0176939D01*
X0046217Y0175341D02*
X0042291Y0175341D01*
X0037916Y0173742D02*
X0037916Y0173742D01*
X0037916Y0172144D02*
X0037916Y0172144D01*
X0030262Y0175341D02*
X0007952Y0175341D01*
X0007952Y0176939D02*
X0029243Y0176939D01*
X0029017Y0178538D02*
X0007952Y0178538D01*
X0007952Y0180136D02*
X0029427Y0180136D01*
X0030167Y0181735D02*
X0007952Y0181735D01*
X0007952Y0183333D02*
X0029203Y0183333D01*
X0029017Y0184932D02*
X0007952Y0184932D01*
X0007952Y0186530D02*
X0029466Y0186530D01*
X0030801Y0188129D02*
X0007952Y0188129D01*
X0007952Y0189727D02*
X0013748Y0189727D01*
X0012150Y0191326D02*
X0007952Y0191326D01*
X0007952Y0192924D02*
X0011239Y0192924D01*
X0010627Y0194523D02*
X0007952Y0194523D01*
X0007952Y0196121D02*
X0010627Y0196121D01*
X0021926Y0189727D02*
X0034210Y0189727D01*
X0035604Y0191326D02*
X0023524Y0191326D01*
X0024435Y0192924D02*
X0045529Y0192924D01*
X0045609Y0194523D02*
X0025047Y0194523D01*
X0025047Y0196121D02*
X0046271Y0196121D01*
X0045900Y0191326D02*
X0040227Y0191326D01*
X0041622Y0189727D02*
X0046883Y0189727D01*
X0049407Y0188129D02*
X0042091Y0188129D01*
X0047837Y0184615D02*
X0050652Y0181800D01*
X0105652Y0181800D01*
X0102559Y0184932D02*
X0050914Y0184932D01*
X0049316Y0186530D02*
X0104601Y0186530D01*
X0104598Y0188129D02*
X0092251Y0188129D01*
X0094775Y0189727D02*
X0104598Y0189727D01*
X0104598Y0188355D02*
X0108998Y0188355D01*
X0104598Y0188355D01*
X0105747Y0191326D02*
X0095758Y0191326D01*
X0096129Y0192924D02*
X0110990Y0192924D01*
X0109798Y0194523D02*
X0096049Y0194523D01*
X0095387Y0196121D02*
X0109798Y0196121D01*
X0108998Y0192755D02*
X0108998Y0188355D01*
X0108998Y0188355D01*
X0108998Y0192755D01*
X0108998Y0191326D02*
X0108998Y0191326D01*
X0108998Y0189727D02*
X0108998Y0189727D01*
X0108998Y0188355D02*
X0108998Y0188355D01*
X0112250Y0191326D02*
X0116029Y0191326D01*
X0117259Y0192555D02*
X0114798Y0190095D01*
X0114798Y0186615D01*
X0117259Y0184155D01*
X0120738Y0184155D01*
X0123198Y0186615D01*
X0123198Y0188337D01*
X0132959Y0188337D01*
X0134759Y0186537D01*
X0138238Y0186537D01*
X0140698Y0188997D01*
X0140698Y0192477D01*
X0138238Y0194937D01*
X0134759Y0194937D01*
X0132959Y0193137D01*
X0120903Y0193137D01*
X0120021Y0192772D01*
X0119804Y0192555D01*
X0117259Y0192555D01*
X0117007Y0192924D02*
X0120390Y0192924D01*
X0121380Y0190737D02*
X0136498Y0190737D01*
X0133167Y0188129D02*
X0123198Y0188129D01*
X0123113Y0186530D02*
X0144483Y0186530D01*
X0144676Y0186337D02*
X0146498Y0186337D01*
X0146498Y0190737D01*
X0142098Y0190737D01*
X0146498Y0190737D01*
X0146498Y0190737D01*
X0146498Y0190737D01*
X0146498Y0195137D01*
X0144676Y0195137D01*
X0142098Y0192560D01*
X0142098Y0190737D01*
X0142098Y0188914D01*
X0144676Y0186337D01*
X0146498Y0186337D02*
X0148321Y0186337D01*
X0150898Y0188914D01*
X0150898Y0190737D01*
X0150898Y0192560D01*
X0148321Y0195137D01*
X0146498Y0195137D01*
X0146498Y0190737D01*
X0146498Y0190737D01*
X0146498Y0186337D01*
X0146498Y0186530D02*
X0146498Y0186530D01*
X0146498Y0188129D02*
X0146498Y0188129D01*
X0146498Y0189727D02*
X0146498Y0189727D01*
X0146499Y0190737D02*
X0146499Y0190737D01*
X0150898Y0190737D01*
X0146499Y0190737D01*
X0146498Y0191326D02*
X0146498Y0191326D01*
X0146498Y0192924D02*
X0146498Y0192924D01*
X0146498Y0194523D02*
X0146498Y0194523D01*
X0144062Y0194523D02*
X0138652Y0194523D01*
X0140251Y0192924D02*
X0142463Y0192924D01*
X0142098Y0191326D02*
X0140698Y0191326D01*
X0140698Y0189727D02*
X0142098Y0189727D01*
X0142884Y0188129D02*
X0139830Y0188129D01*
X0134345Y0194523D02*
X0118198Y0194523D01*
X0118198Y0196121D02*
X0159632Y0196121D01*
X0159865Y0196158D02*
X0159010Y0196023D01*
X0158186Y0195755D01*
X0157415Y0195362D01*
X0156715Y0194853D01*
X0156102Y0194241D01*
X0155594Y0193541D01*
X0155201Y0192770D01*
X0154933Y0191946D01*
X0154798Y0191091D01*
X0154798Y0190858D01*
X0160098Y0190858D01*
X0160098Y0196158D01*
X0159865Y0196158D01*
X0160098Y0196121D02*
X0160498Y0196121D01*
X0160498Y0196158D02*
X0160498Y0190858D01*
X0165798Y0190858D01*
X0165798Y0191091D01*
X0165662Y0191946D01*
X0165395Y0192770D01*
X0165002Y0193541D01*
X0164493Y0194241D01*
X0163881Y0194853D01*
X0163180Y0195362D01*
X0162409Y0195755D01*
X0161586Y0196023D01*
X0160730Y0196158D01*
X0160498Y0196158D01*
X0160963Y0196121D02*
X0191972Y0196121D01*
X0192955Y0193158D02*
X0194628Y0191485D01*
X0192955Y0193158D02*
X0180298Y0190658D01*
X0183928Y0194523D02*
X0187478Y0194523D01*
X0187970Y0189727D02*
X0189620Y0189727D01*
X0190489Y0188129D02*
X0184987Y0188129D01*
X0183665Y0186530D02*
X0192741Y0186530D01*
X0190580Y0184932D02*
X0121515Y0184932D01*
X0118998Y0188355D02*
X0121380Y0190737D01*
X0114798Y0189727D02*
X0113398Y0189727D01*
X0113398Y0188129D02*
X0114798Y0188129D01*
X0114884Y0186530D02*
X0113396Y0186530D01*
X0111798Y0184932D02*
X0116482Y0184932D01*
X0109233Y0183333D02*
X0189657Y0183333D01*
X0189328Y0181735D02*
X0109233Y0181735D01*
X0109233Y0180136D02*
X0189450Y0180136D01*
X0190112Y0178538D02*
X0108615Y0178538D01*
X0104233Y0176939D02*
X0191753Y0176939D01*
X0190706Y0175341D02*
X0104233Y0175341D01*
X0103819Y0173742D02*
X0189606Y0173742D01*
X0189164Y0172144D02*
X0170461Y0172144D01*
X0171505Y0170545D02*
X0189209Y0170545D01*
X0189749Y0168947D02*
X0171505Y0168947D01*
X0171234Y0167348D02*
X0190987Y0167348D01*
X0191398Y0165750D02*
X0169636Y0165750D01*
X0164975Y0165750D02*
X0095476Y0165750D01*
X0093878Y0164151D02*
X0111944Y0164151D01*
X0112494Y0157757D02*
X0105552Y0157757D01*
X0105552Y0156159D02*
X0132854Y0156159D01*
X0131452Y0157757D02*
X0122629Y0157757D01*
X0123053Y0154560D02*
X0190208Y0154560D01*
X0192062Y0156159D02*
X0153608Y0156159D01*
X0155206Y0157757D02*
X0190861Y0157757D01*
X0194628Y0161485D02*
X0105337Y0161485D01*
X0103152Y0159300D01*
X0103152Y0139300D01*
X0100652Y0136800D01*
X0093132Y0136800D01*
X0087561Y0131229D01*
X0091857Y0127385D02*
X0100343Y0127385D01*
X0098745Y0125787D02*
X0048364Y0125787D01*
X0045652Y0129300D02*
X0045160Y0129792D01*
X0006400Y0129792D01*
X0009890Y0125787D02*
X0042940Y0125787D01*
X0042071Y0127385D02*
X0011140Y0127385D01*
X0006400Y0119792D02*
X0042660Y0119792D01*
X0050652Y0111800D01*
X0088132Y0111800D01*
X0087561Y0111229D01*
X0088132Y0111800D02*
X0090652Y0111800D01*
X0092733Y0114597D02*
X0112390Y0114597D01*
X0110652Y0111800D02*
X0116991Y0111800D01*
X0117561Y0111229D01*
X0122018Y0105006D02*
X0155752Y0105006D01*
X0155752Y0103408D02*
X0123805Y0103408D01*
X0124361Y0101809D02*
X0155752Y0101809D01*
X0155752Y0100211D02*
X0124286Y0100211D01*
X0123484Y0098612D02*
X0155839Y0098612D01*
X0158152Y0099300D02*
X0175652Y0081800D01*
X0175652Y0079300D01*
X0176794Y0078158D01*
X0195317Y0078158D01*
X0190937Y0065043D02*
X0173633Y0065043D01*
X0173296Y0065381D02*
X0168008Y0065381D01*
X0167071Y0064444D01*
X0167071Y0064200D01*
X0123130Y0064200D01*
X0122541Y0064790D01*
X0120997Y0065429D01*
X0114126Y0065429D01*
X0112582Y0064790D01*
X0111401Y0063608D01*
X0110761Y0062065D01*
X0110761Y0060394D01*
X0111401Y0058850D01*
X0112582Y0057669D01*
X0114126Y0057029D01*
X0120997Y0057029D01*
X0122541Y0057669D01*
X0123722Y0058850D01*
X0123950Y0059400D01*
X0167071Y0059400D01*
X0167071Y0059156D01*
X0168008Y0058219D01*
X0173296Y0058219D01*
X0174233Y0059156D01*
X0174233Y0064444D01*
X0173296Y0065381D01*
X0174233Y0063445D02*
X0192847Y0063445D01*
X0195202Y0061846D02*
X0174233Y0061846D01*
X0174233Y0060248D02*
X0195202Y0060248D01*
X0195202Y0058649D02*
X0173726Y0058649D01*
X0170652Y0061800D02*
X0118132Y0061800D01*
X0117561Y0061229D01*
X0114073Y0057051D02*
X0108052Y0057051D01*
X0108052Y0058649D02*
X0111601Y0058649D01*
X0110822Y0060248D02*
X0108052Y0060248D01*
X0108052Y0061846D02*
X0110761Y0061846D01*
X0111333Y0063445D02*
X0108052Y0063445D01*
X0108052Y0065043D02*
X0113195Y0065043D01*
X0117561Y0068240D02*
X0117561Y0068240D01*
X0117561Y0069839D02*
X0117561Y0069839D01*
X0117561Y0071437D02*
X0117561Y0071437D01*
X0117561Y0073036D02*
X0117561Y0073036D01*
X0117561Y0074634D02*
X0117561Y0074634D01*
X0123105Y0084226D02*
X0129069Y0084226D01*
X0113176Y0087423D02*
X0108052Y0087423D01*
X0108052Y0089021D02*
X0111330Y0089021D01*
X0110761Y0090620D02*
X0108052Y0090620D01*
X0108052Y0092218D02*
X0110825Y0092218D01*
X0111609Y0093817D02*
X0108052Y0093817D01*
X0108052Y0095415D02*
X0114092Y0095415D01*
X0103252Y0095415D02*
X0091517Y0095415D01*
X0091192Y0095521D02*
X0090508Y0095629D01*
X0087561Y0095629D01*
X0084615Y0095629D01*
X0083931Y0095521D01*
X0083272Y0095307D01*
X0082655Y0094992D01*
X0082095Y0094585D01*
X0081605Y0094096D01*
X0081198Y0093535D01*
X0080884Y0092918D01*
X0080670Y0092259D01*
X0080561Y0091575D01*
X0080561Y0091229D01*
X0080561Y0090883D01*
X0080670Y0090199D01*
X0080884Y0089540D01*
X0081198Y0088923D01*
X0081605Y0088363D01*
X0082095Y0087873D01*
X0082655Y0087466D01*
X0083272Y0087151D01*
X0083931Y0086937D01*
X0084615Y0086829D01*
X0087561Y0086829D01*
X0087561Y0091229D01*
X0080561Y0091229D01*
X0087561Y0091229D01*
X0087561Y0091229D01*
X0087561Y0091229D01*
X0087561Y0095629D01*
X0087561Y0091229D01*
X0087561Y0091229D01*
X0087561Y0086829D01*
X0090508Y0086829D01*
X0091192Y0086937D01*
X0091850Y0087151D01*
X0092468Y0087466D01*
X0093028Y0087873D01*
X0093518Y0088363D01*
X0093925Y0088923D01*
X0094239Y0089540D01*
X0094453Y0090199D01*
X0094561Y0090883D01*
X0094561Y0091229D01*
X0087562Y0091229D01*
X0087562Y0091229D01*
X0094561Y0091229D01*
X0094561Y0091575D01*
X0094453Y0092259D01*
X0094239Y0092918D01*
X0093925Y0093535D01*
X0093518Y0094096D01*
X0093028Y0094585D01*
X0092468Y0094992D01*
X0091850Y0095307D01*
X0091192Y0095521D01*
X0093720Y0093817D02*
X0103252Y0093817D01*
X0103252Y0092218D02*
X0094460Y0092218D01*
X0094520Y0090620D02*
X0103252Y0090620D01*
X0103252Y0089021D02*
X0093975Y0089021D01*
X0092382Y0087423D02*
X0103252Y0087423D01*
X0103252Y0085824D02*
X0062221Y0085824D01*
X0061881Y0086071D02*
X0061110Y0086464D01*
X0061054Y0086482D01*
X0062001Y0086874D01*
X0063492Y0088365D01*
X0064298Y0090313D01*
X0064298Y0092421D01*
X0063492Y0094369D01*
X0062001Y0095860D01*
X0060053Y0096667D01*
X0057944Y0096667D01*
X0055996Y0095860D01*
X0054505Y0094369D01*
X0053698Y0092421D01*
X0053698Y0090313D01*
X0054505Y0088365D01*
X0055996Y0086874D01*
X0056942Y0086482D01*
X0056887Y0086464D01*
X0056116Y0086071D01*
X0055415Y0085562D01*
X0054803Y0084950D01*
X0054294Y0084250D01*
X0053901Y0083478D01*
X0053634Y0082655D01*
X0053498Y0081800D01*
X0053498Y0081567D01*
X0058798Y0081567D01*
X0058798Y0081167D01*
X0053498Y0081167D01*
X0053498Y0080934D01*
X0053634Y0080079D01*
X0053901Y0079256D01*
X0054294Y0078484D01*
X0054803Y0077784D01*
X0055415Y0077172D01*
X0056116Y0076663D01*
X0056887Y0076270D01*
X0056942Y0076252D01*
X0055996Y0075860D01*
X0054505Y0074369D01*
X0053698Y0072421D01*
X0053698Y0070313D01*
X0054505Y0068365D01*
X0055996Y0066874D01*
X0057944Y0066067D01*
X0060053Y0066067D01*
X0062001Y0066874D01*
X0063492Y0068365D01*
X0063741Y0068967D01*
X0081352Y0068967D01*
X0081401Y0068850D01*
X0082582Y0067669D01*
X0084126Y0067029D01*
X0090997Y0067029D01*
X0092541Y0067669D01*
X0093722Y0068850D01*
X0094361Y0070394D01*
X0094361Y0072065D01*
X0093722Y0073608D01*
X0092541Y0074790D01*
X0090997Y0075429D01*
X0084126Y0075429D01*
X0082582Y0074790D01*
X0081560Y0073767D01*
X0063741Y0073767D01*
X0063492Y0074369D01*
X0062001Y0075860D01*
X0061054Y0076252D01*
X0061110Y0076270D01*
X0061881Y0076663D01*
X0062581Y0077172D01*
X0063194Y0077784D01*
X0063702Y0078484D01*
X0064095Y0079256D01*
X0064363Y0080079D01*
X0064498Y0080934D01*
X0064498Y0081167D01*
X0059198Y0081167D01*
X0059198Y0081567D01*
X0064498Y0081567D01*
X0064498Y0081800D01*
X0064363Y0082655D01*
X0064095Y0083478D01*
X0063702Y0084250D01*
X0063194Y0084950D01*
X0062581Y0085562D01*
X0061881Y0086071D01*
X0062549Y0087423D02*
X0082740Y0087423D01*
X0081148Y0089021D02*
X0063763Y0089021D01*
X0064298Y0090620D02*
X0080603Y0090620D01*
X0080663Y0092218D02*
X0064298Y0092218D01*
X0063720Y0093817D02*
X0081403Y0093817D01*
X0083606Y0095415D02*
X0062446Y0095415D01*
X0055551Y0095415D02*
X0041733Y0095415D01*
X0041733Y0097014D02*
X0103252Y0097014D01*
X0103252Y0098612D02*
X0093484Y0098612D01*
X0094286Y0100211D02*
X0103252Y0100211D01*
X0103252Y0101809D02*
X0094361Y0101809D01*
X0093805Y0103408D02*
X0103252Y0103408D01*
X0103252Y0105006D02*
X0092018Y0105006D01*
X0093075Y0108203D02*
X0103661Y0108203D01*
X0104292Y0108835D02*
X0104292Y0108835D01*
X0105260Y0109802D02*
X0094116Y0109802D01*
X0094361Y0111400D02*
X0106858Y0111400D01*
X0108457Y0112999D02*
X0093974Y0112999D01*
X0092666Y0117794D02*
X0112457Y0117794D01*
X0111176Y0119393D02*
X0093947Y0119393D01*
X0098152Y0121800D02*
X0088132Y0121800D01*
X0087561Y0121229D01*
X0082390Y0114597D02*
X0051249Y0114597D01*
X0047658Y0111400D02*
X0041946Y0111400D01*
X0043544Y0109802D02*
X0049256Y0109802D01*
X0048617Y0110441D02*
X0048617Y0110441D01*
X0046059Y0112999D02*
X0040347Y0112999D01*
X0038152Y0111800D02*
X0008408Y0111800D01*
X0006400Y0109792D01*
X0008649Y0114597D02*
X0044461Y0114597D01*
X0042862Y0116196D02*
X0010299Y0116196D01*
X0011479Y0108203D02*
X0038355Y0108203D01*
X0039953Y0106605D02*
X0010708Y0106605D01*
X0008695Y0105006D02*
X0041552Y0105006D01*
X0043150Y0103408D02*
X0010280Y0103408D01*
X0011301Y0101809D02*
X0044749Y0101809D01*
X0046347Y0100211D02*
X0040966Y0100211D01*
X0041733Y0098612D02*
X0081639Y0098612D01*
X0087561Y0101229D02*
X0048723Y0101229D01*
X0038152Y0111800D01*
X0045143Y0108203D02*
X0082048Y0108203D01*
X0083105Y0105006D02*
X0048340Y0105006D01*
X0046741Y0106605D02*
X0103252Y0106605D01*
X0105652Y0106800D02*
X0105652Y0046800D01*
X0100652Y0041800D01*
X0086991Y0041800D01*
X0087561Y0041229D01*
X0086991Y0041800D02*
X0068152Y0041800D01*
X0018152Y0041800D01*
X0015652Y0044300D01*
X0019233Y0044263D02*
X0064675Y0044263D01*
X0066274Y0045861D02*
X0019233Y0045861D01*
X0018717Y0047460D02*
X0066270Y0047460D01*
X0066329Y0047400D02*
X0063752Y0049977D01*
X0063752Y0051800D01*
X0068152Y0051800D01*
X0072552Y0051800D01*
X0072552Y0053623D01*
X0069974Y0056200D01*
X0068152Y0056200D01*
X0068152Y0051800D01*
X0068152Y0051800D01*
X0072552Y0051800D01*
X0072552Y0049977D01*
X0069974Y0047400D01*
X0068152Y0047400D01*
X0068152Y0051800D01*
X0068152Y0051800D01*
X0068152Y0051800D01*
X0068152Y0056200D01*
X0066329Y0056200D01*
X0063752Y0053623D01*
X0063752Y0051800D01*
X0068152Y0051800D01*
X0068152Y0051800D01*
X0068152Y0047400D01*
X0066329Y0047400D01*
X0068152Y0047460D02*
X0068152Y0047460D01*
X0068152Y0049058D02*
X0068152Y0049058D01*
X0068152Y0050657D02*
X0068152Y0050657D01*
X0068152Y0052255D02*
X0068152Y0052255D01*
X0068152Y0053854D02*
X0068152Y0053854D01*
X0068152Y0055452D02*
X0068152Y0055452D01*
X0070722Y0055452D02*
X0103252Y0055452D01*
X0103252Y0053854D02*
X0093476Y0053854D01*
X0093722Y0053608D02*
X0092541Y0054790D01*
X0090997Y0055429D01*
X0084126Y0055429D01*
X0082582Y0054790D01*
X0081401Y0053608D01*
X0080761Y0052065D01*
X0080761Y0050394D01*
X0081401Y0048850D01*
X0082582Y0047669D01*
X0084126Y0047029D01*
X0090997Y0047029D01*
X0092541Y0047669D01*
X0093722Y0048850D01*
X0094361Y0050394D01*
X0094361Y0052065D01*
X0093722Y0053608D01*
X0094282Y0052255D02*
X0103252Y0052255D01*
X0103252Y0050657D02*
X0094361Y0050657D01*
X0093808Y0049058D02*
X0103252Y0049058D01*
X0102918Y0047460D02*
X0092037Y0047460D01*
X0093067Y0044263D02*
X0099721Y0044263D01*
X0101319Y0045861D02*
X0070030Y0045861D01*
X0070034Y0047460D02*
X0083086Y0047460D01*
X0081315Y0049058D02*
X0071633Y0049058D01*
X0072552Y0050657D02*
X0080761Y0050657D01*
X0080840Y0052255D02*
X0072552Y0052255D01*
X0072321Y0053854D02*
X0081646Y0053854D01*
X0082582Y0057669D02*
X0084126Y0057029D01*
X0090997Y0057029D01*
X0092541Y0057669D01*
X0093722Y0058850D01*
X0094361Y0060394D01*
X0094361Y0062065D01*
X0093722Y0063608D01*
X0092541Y0064790D01*
X0090997Y0065429D01*
X0084126Y0065429D01*
X0082582Y0064790D01*
X0081422Y0063629D01*
X0046080Y0063629D01*
X0045198Y0063264D01*
X0044523Y0062589D01*
X0042827Y0060893D01*
X0039996Y0060893D01*
X0039059Y0059956D01*
X0039059Y0054668D01*
X0039996Y0053731D01*
X0045284Y0053731D01*
X0046221Y0054668D01*
X0046221Y0057499D01*
X0047552Y0058829D01*
X0081422Y0058829D01*
X0082582Y0057669D01*
X0081601Y0058649D02*
X0047372Y0058649D01*
X0046221Y0057051D02*
X0084073Y0057051D01*
X0087561Y0061229D02*
X0046557Y0061229D01*
X0042640Y0057312D01*
X0039059Y0057051D02*
X0007952Y0057051D01*
X0007952Y0058649D02*
X0039059Y0058649D01*
X0039351Y0060248D02*
X0007952Y0060248D01*
X0007952Y0061846D02*
X0043781Y0061846D01*
X0045635Y0063445D02*
X0026012Y0063445D01*
X0027017Y0064450D02*
X0024557Y0061990D01*
X0021078Y0061990D01*
X0018617Y0064450D01*
X0018617Y0067929D01*
X0021078Y0070390D01*
X0024557Y0070390D01*
X0027017Y0067929D01*
X0027017Y0064450D01*
X0027017Y0065043D02*
X0083195Y0065043D01*
X0082010Y0068240D02*
X0063367Y0068240D01*
X0061441Y0066642D02*
X0103252Y0066642D01*
X0103252Y0068240D02*
X0093112Y0068240D01*
X0094132Y0069839D02*
X0103252Y0069839D01*
X0103252Y0071437D02*
X0094361Y0071437D01*
X0093959Y0073036D02*
X0103252Y0073036D01*
X0103252Y0074634D02*
X0092696Y0074634D01*
X0090997Y0077029D02*
X0092541Y0077669D01*
X0093722Y0078850D01*
X0094361Y0080394D01*
X0094361Y0082065D01*
X0093722Y0083608D01*
X0092541Y0084790D01*
X0090997Y0085429D01*
X0084126Y0085429D01*
X0082582Y0084790D01*
X0081401Y0083608D01*
X0080761Y0082065D01*
X0080761Y0080394D01*
X0081401Y0078850D01*
X0082582Y0077669D01*
X0084126Y0077029D01*
X0090997Y0077029D01*
X0092703Y0077832D02*
X0103252Y0077832D01*
X0103252Y0079430D02*
X0093962Y0079430D01*
X0094361Y0081029D02*
X0103252Y0081029D01*
X0103252Y0082627D02*
X0094128Y0082627D01*
X0093105Y0084226D02*
X0103252Y0084226D01*
X0103252Y0076233D02*
X0061100Y0076233D01*
X0063226Y0074634D02*
X0082427Y0074634D01*
X0082419Y0077832D02*
X0063228Y0077832D01*
X0064152Y0079430D02*
X0081161Y0079430D01*
X0080761Y0081029D02*
X0064498Y0081029D01*
X0064367Y0082627D02*
X0080994Y0082627D01*
X0082018Y0084226D02*
X0063715Y0084226D01*
X0055776Y0085824D02*
X0045901Y0085824D01*
X0046733Y0087423D02*
X0055447Y0087423D01*
X0054233Y0089021D02*
X0046733Y0089021D01*
X0046733Y0090620D02*
X0053698Y0090620D01*
X0053698Y0092218D02*
X0046459Y0092218D01*
X0043152Y0089300D02*
X0006892Y0089300D01*
X0006400Y0089792D01*
X0009927Y0085824D02*
X0040403Y0085824D01*
X0039845Y0092218D02*
X0011132Y0092218D01*
X0009871Y0093817D02*
X0034910Y0093817D01*
X0038152Y0096800D02*
X0009392Y0096800D01*
X0006400Y0099792D01*
X0011700Y0100211D02*
X0035338Y0100211D01*
X0041394Y0093817D02*
X0054276Y0093817D01*
X0054282Y0084226D02*
X0009462Y0084226D01*
X0010962Y0082627D02*
X0053629Y0082627D01*
X0053498Y0081029D02*
X0011625Y0081029D01*
X0011700Y0079430D02*
X0053845Y0079430D01*
X0054769Y0077832D02*
X0011325Y0077832D01*
X0010336Y0076233D02*
X0056897Y0076233D01*
X0054771Y0074634D02*
X0009011Y0074634D01*
X0010842Y0073036D02*
X0053953Y0073036D01*
X0053698Y0071437D02*
X0011648Y0071437D01*
X0011679Y0068240D02*
X0018928Y0068240D01*
X0018617Y0066642D02*
X0010910Y0066642D01*
X0009195Y0065043D02*
X0018617Y0065043D01*
X0019622Y0063445D02*
X0007952Y0063445D01*
X0007952Y0069839D02*
X0020527Y0069839D01*
X0025108Y0069839D02*
X0053895Y0069839D01*
X0054630Y0068240D02*
X0026706Y0068240D01*
X0027017Y0066642D02*
X0056556Y0066642D01*
X0058998Y0071367D02*
X0087424Y0071367D01*
X0087561Y0071229D01*
X0091928Y0065043D02*
X0103252Y0065043D01*
X0103252Y0063445D02*
X0093790Y0063445D01*
X0094361Y0061846D02*
X0103252Y0061846D01*
X0103252Y0060248D02*
X0094301Y0060248D01*
X0093521Y0058649D02*
X0103252Y0058649D01*
X0103252Y0057051D02*
X0091049Y0057051D01*
X0082055Y0044263D02*
X0071629Y0044263D01*
X0070160Y0037869D02*
X0082382Y0037869D01*
X0084126Y0035429D02*
X0082582Y0034790D01*
X0081993Y0034200D01*
X0036733Y0034200D01*
X0036733Y0034444D01*
X0035796Y0035381D01*
X0030508Y0035381D01*
X0029571Y0034444D01*
X0029571Y0029156D01*
X0030508Y0028219D01*
X0035796Y0028219D01*
X0036733Y0029156D01*
X0036733Y0029400D01*
X0081173Y0029400D01*
X0081401Y0028850D01*
X0082582Y0027669D01*
X0084126Y0027029D01*
X0090997Y0027029D01*
X0092541Y0027669D01*
X0093722Y0028850D01*
X0094361Y0030394D01*
X0094361Y0032065D01*
X0093722Y0033608D01*
X0092541Y0034790D01*
X0090997Y0035429D01*
X0084126Y0035429D01*
X0082464Y0034672D02*
X0036505Y0034672D01*
X0033152Y0031800D02*
X0086991Y0031800D01*
X0087561Y0031229D01*
X0092659Y0034672D02*
X0112464Y0034672D01*
X0112582Y0034790D02*
X0111401Y0033608D01*
X0110761Y0032065D01*
X0110761Y0030394D01*
X0111401Y0028850D01*
X0112582Y0027669D01*
X0114126Y0027029D01*
X0120997Y0027029D01*
X0122541Y0027669D01*
X0123722Y0028850D01*
X0124361Y0030394D01*
X0124361Y0032065D01*
X0123722Y0033608D01*
X0122541Y0034790D01*
X0120997Y0035429D01*
X0114126Y0035429D01*
X0112582Y0034790D01*
X0111179Y0033073D02*
X0093944Y0033073D01*
X0094361Y0031475D02*
X0110761Y0031475D01*
X0110976Y0029876D02*
X0094147Y0029876D01*
X0093150Y0028278D02*
X0111973Y0028278D01*
X0109616Y0021020D02*
X0106137Y0021020D01*
X0103676Y0018559D01*
X0103676Y0015080D01*
X0106137Y0012620D01*
X0109616Y0012620D01*
X0112076Y0015080D01*
X0112076Y0018559D01*
X0109616Y0021020D01*
X0110351Y0020285D02*
X0195202Y0020285D01*
X0195202Y0018687D02*
X0166484Y0018687D01*
X0167591Y0017579D02*
X0165014Y0020157D01*
X0163191Y0020157D01*
X0161369Y0020157D01*
X0158791Y0017579D01*
X0158791Y0015757D01*
X0163191Y0015757D01*
X0163191Y0020157D01*
X0163191Y0015757D01*
X0163191Y0015757D01*
X0163191Y0015757D01*
X0158791Y0015757D01*
X0158791Y0013934D01*
X0161369Y0011357D01*
X0163191Y0011357D01*
X0163191Y0015757D01*
X0163191Y0015757D01*
X0167591Y0015757D01*
X0167591Y0017579D01*
X0167591Y0017088D02*
X0195202Y0017088D01*
X0195202Y0015490D02*
X0167591Y0015490D01*
X0167591Y0015757D02*
X0163191Y0015757D01*
X0163191Y0015757D01*
X0163191Y0011357D01*
X0165014Y0011357D01*
X0167591Y0013934D01*
X0167591Y0015757D01*
X0167548Y0013891D02*
X0195202Y0013891D01*
X0195202Y0012293D02*
X0165950Y0012293D01*
X0163191Y0012293D02*
X0163191Y0012293D01*
X0163191Y0013891D02*
X0163191Y0013891D01*
X0163191Y0015490D02*
X0163191Y0015490D01*
X0163191Y0017088D02*
X0163191Y0017088D01*
X0163191Y0018687D02*
X0163191Y0018687D01*
X0159899Y0018687D02*
X0126201Y0018687D01*
X0127391Y0017496D02*
X0124931Y0019957D01*
X0121452Y0019957D01*
X0118991Y0017496D01*
X0118991Y0014017D01*
X0121452Y0011557D01*
X0124931Y0011557D01*
X0127391Y0014017D01*
X0127391Y0017496D01*
X0127391Y0017088D02*
X0158791Y0017088D01*
X0158791Y0015490D02*
X0127391Y0015490D01*
X0127265Y0013891D02*
X0158834Y0013891D01*
X0160433Y0012293D02*
X0125667Y0012293D01*
X0120716Y0012293D02*
X0046179Y0012293D01*
X0045642Y0011756D02*
X0047133Y0013247D01*
X0047940Y0015195D01*
X0047940Y0017303D01*
X0047133Y0019251D01*
X0045642Y0020742D01*
X0043694Y0021549D01*
X0041586Y0021549D01*
X0039638Y0020742D01*
X0038147Y0019251D01*
X0037340Y0017303D01*
X0037340Y0015195D01*
X0038147Y0013247D01*
X0039638Y0011756D01*
X0041586Y0010949D01*
X0043694Y0010949D01*
X0045642Y0011756D01*
X0047400Y0013891D02*
X0094865Y0013891D01*
X0093676Y0015080D02*
X0096137Y0012620D01*
X0099616Y0012620D01*
X0102076Y0015080D01*
X0102076Y0018559D01*
X0099616Y0021020D01*
X0096137Y0021020D01*
X0093676Y0018559D01*
X0093676Y0015080D01*
X0093676Y0015490D02*
X0047940Y0015490D01*
X0047940Y0017088D02*
X0093676Y0017088D01*
X0093804Y0018687D02*
X0047367Y0018687D01*
X0046099Y0020285D02*
X0095402Y0020285D01*
X0100351Y0020285D02*
X0105402Y0020285D01*
X0103804Y0018687D02*
X0101949Y0018687D01*
X0102076Y0017088D02*
X0103676Y0017088D01*
X0103676Y0015490D02*
X0102076Y0015490D01*
X0100887Y0013891D02*
X0104865Y0013891D01*
X0110887Y0013891D02*
X0119117Y0013891D01*
X0118991Y0015490D02*
X0112076Y0015490D01*
X0112076Y0017088D02*
X0118991Y0017088D01*
X0120182Y0018687D02*
X0111949Y0018687D01*
X0123150Y0028278D02*
X0195202Y0028278D01*
X0195202Y0029876D02*
X0124147Y0029876D01*
X0124361Y0031475D02*
X0195202Y0031475D01*
X0195202Y0033073D02*
X0123944Y0033073D01*
X0122659Y0034672D02*
X0195202Y0034672D01*
X0195202Y0036270D02*
X0007952Y0036270D01*
X0007952Y0034672D02*
X0029799Y0034672D01*
X0029571Y0033073D02*
X0007952Y0033073D01*
X0007952Y0031475D02*
X0029571Y0031475D01*
X0029571Y0029876D02*
X0025353Y0029876D01*
X0024640Y0030590D02*
X0022817Y0030590D01*
X0020995Y0030590D01*
X0018417Y0028012D01*
X0018417Y0026190D01*
X0022817Y0026190D01*
X0022817Y0026190D01*
X0022817Y0030590D01*
X0022817Y0026190D01*
X0022817Y0026190D01*
X0018417Y0026190D01*
X0018417Y0024367D01*
X0020995Y0021790D01*
X0022817Y0021790D01*
X0022817Y0026190D01*
X0022817Y0026190D01*
X0027217Y0026190D01*
X0027217Y0028012D01*
X0024640Y0030590D01*
X0022817Y0029876D02*
X0022817Y0029876D01*
X0022817Y0028278D02*
X0022817Y0028278D01*
X0022817Y0026679D02*
X0022817Y0026679D01*
X0022817Y0026190D02*
X0022817Y0026190D01*
X0022817Y0021790D01*
X0024640Y0021790D01*
X0027217Y0024367D01*
X0027217Y0026190D01*
X0022817Y0026190D01*
X0022817Y0025081D02*
X0022817Y0025081D01*
X0022817Y0023482D02*
X0022817Y0023482D01*
X0022817Y0021884D02*
X0022817Y0021884D01*
X0022840Y0021749D02*
X0022840Y0016449D01*
X0022440Y0016449D01*
X0022440Y0021749D01*
X0022207Y0021749D01*
X0021352Y0021613D01*
X0020529Y0021346D01*
X0019758Y0020953D01*
X0019057Y0020444D01*
X0018445Y0019832D01*
X0017936Y0019131D01*
X0017543Y0018360D01*
X0017276Y0017537D01*
X0017140Y0016682D01*
X0017140Y0016449D01*
X0022440Y0016449D01*
X0022440Y0016049D01*
X0017140Y0016049D01*
X0017140Y0015816D01*
X0017276Y0014961D01*
X0017543Y0014138D01*
X0017936Y0013366D01*
X0018445Y0012666D01*
X0019057Y0012054D01*
X0019758Y0011545D01*
X0020529Y0011152D01*
X0021352Y0010884D01*
X0022207Y0010749D01*
X0022440Y0010749D01*
X0022440Y0016049D01*
X0022840Y0016049D01*
X0022840Y0016449D01*
X0028140Y0016449D01*
X0028140Y0016682D01*
X0028005Y0017537D01*
X0027737Y0018360D01*
X0027344Y0019131D01*
X0026835Y0019832D01*
X0026223Y0020444D01*
X0025523Y0020953D01*
X0024751Y0021346D01*
X0023928Y0021613D01*
X0023073Y0021749D01*
X0022840Y0021749D01*
X0022840Y0020285D02*
X0022440Y0020285D01*
X0022440Y0018687D02*
X0022840Y0018687D01*
X0022840Y0017088D02*
X0022440Y0017088D01*
X0022840Y0016049D02*
X0028140Y0016049D01*
X0028140Y0015816D01*
X0028005Y0014961D01*
X0027737Y0014138D01*
X0027344Y0013366D01*
X0026835Y0012666D01*
X0026223Y0012054D01*
X0025523Y0011545D01*
X0024751Y0011152D01*
X0023928Y0010884D01*
X0023073Y0010749D01*
X0022840Y0010749D01*
X0022840Y0016049D01*
X0022840Y0015490D02*
X0022440Y0015490D01*
X0022440Y0013891D02*
X0022840Y0013891D01*
X0022840Y0012293D02*
X0022440Y0012293D01*
X0018818Y0012293D02*
X0007952Y0012293D01*
X0007952Y0013891D02*
X0017669Y0013891D01*
X0017192Y0015490D02*
X0007952Y0015490D01*
X0007952Y0017088D02*
X0017205Y0017088D01*
X0017709Y0018687D02*
X0007952Y0018687D01*
X0007952Y0020285D02*
X0018898Y0020285D01*
X0020901Y0021884D02*
X0007952Y0021884D01*
X0007952Y0023482D02*
X0019302Y0023482D01*
X0018417Y0025081D02*
X0007952Y0025081D01*
X0007952Y0026679D02*
X0018417Y0026679D01*
X0018683Y0028278D02*
X0007952Y0028278D01*
X0007952Y0029876D02*
X0020281Y0029876D01*
X0026332Y0023482D02*
X0195202Y0023482D01*
X0195202Y0021884D02*
X0024734Y0021884D01*
X0026382Y0020285D02*
X0039181Y0020285D01*
X0037913Y0018687D02*
X0027571Y0018687D01*
X0028076Y0017088D02*
X0037340Y0017088D01*
X0037340Y0015490D02*
X0028088Y0015490D01*
X0027612Y0013891D02*
X0037880Y0013891D01*
X0039101Y0012293D02*
X0026462Y0012293D01*
X0027217Y0025081D02*
X0195202Y0025081D01*
X0195202Y0026679D02*
X0027217Y0026679D01*
X0026952Y0028278D02*
X0030449Y0028278D01*
X0035855Y0028278D02*
X0081973Y0028278D01*
X0092741Y0037869D02*
X0112382Y0037869D01*
X0112582Y0037669D02*
X0114126Y0037029D01*
X0120997Y0037029D01*
X0122541Y0037669D01*
X0123722Y0038850D01*
X0123950Y0039400D01*
X0177071Y0039400D01*
X0177071Y0039156D01*
X0178008Y0038219D01*
X0183296Y0038219D01*
X0184233Y0039156D01*
X0184233Y0044444D01*
X0183296Y0045381D01*
X0178008Y0045381D01*
X0177071Y0044444D01*
X0177071Y0044200D01*
X0123130Y0044200D01*
X0122541Y0044790D01*
X0120997Y0045429D01*
X0114126Y0045429D01*
X0112582Y0044790D01*
X0111401Y0043608D01*
X0110761Y0042065D01*
X0110761Y0040394D01*
X0111401Y0038850D01*
X0112582Y0037669D01*
X0111145Y0039467D02*
X0101292Y0039467D01*
X0103312Y0041066D02*
X0110761Y0041066D01*
X0111010Y0042664D02*
X0104910Y0042664D01*
X0106509Y0044263D02*
X0112055Y0044263D01*
X0112582Y0047669D02*
X0114126Y0047029D01*
X0120997Y0047029D01*
X0122541Y0047669D01*
X0123722Y0048850D01*
X0123950Y0049400D01*
X0172071Y0049400D01*
X0172071Y0049156D01*
X0173008Y0048219D01*
X0178296Y0048219D01*
X0179233Y0049156D01*
X0179233Y0054444D01*
X0178296Y0055381D01*
X0173008Y0055381D01*
X0172071Y0054444D01*
X0172071Y0054200D01*
X0123130Y0054200D01*
X0122541Y0054790D01*
X0120997Y0055429D01*
X0114126Y0055429D01*
X0112582Y0054790D01*
X0111401Y0053608D01*
X0110761Y0052065D01*
X0110761Y0050394D01*
X0111401Y0048850D01*
X0112582Y0047669D01*
X0113086Y0047460D02*
X0108052Y0047460D01*
X0108052Y0049058D02*
X0111315Y0049058D01*
X0110761Y0050657D02*
X0108052Y0050657D01*
X0108052Y0052255D02*
X0110840Y0052255D01*
X0111646Y0053854D02*
X0108052Y0053854D01*
X0108052Y0055452D02*
X0195202Y0055452D01*
X0195202Y0053854D02*
X0179233Y0053854D01*
X0179233Y0052255D02*
X0195202Y0052255D01*
X0195202Y0050657D02*
X0179233Y0050657D01*
X0179135Y0049058D02*
X0195202Y0049058D01*
X0195202Y0047460D02*
X0122037Y0047460D01*
X0123808Y0049058D02*
X0172169Y0049058D01*
X0175652Y0051800D02*
X0118132Y0051800D01*
X0117561Y0051229D01*
X0121049Y0057051D02*
X0195202Y0057051D01*
X0195202Y0045861D02*
X0107861Y0045861D01*
X0117561Y0041229D02*
X0118132Y0041800D01*
X0180652Y0041800D01*
X0184233Y0041066D02*
X0195202Y0041066D01*
X0195202Y0042664D02*
X0184233Y0042664D01*
X0184233Y0044263D02*
X0195202Y0044263D01*
X0195202Y0039467D02*
X0184233Y0039467D01*
X0177071Y0044263D02*
X0123067Y0044263D01*
X0122741Y0037869D02*
X0195202Y0037869D01*
X0195202Y0010694D02*
X0007952Y0010694D01*
X0007952Y0037869D02*
X0066144Y0037869D01*
X0064671Y0049058D02*
X0007952Y0049058D01*
X0007952Y0047460D02*
X0012587Y0047460D01*
X0012071Y0045861D02*
X0007952Y0045861D01*
X0007952Y0044263D02*
X0012071Y0044263D01*
X0012071Y0042664D02*
X0007952Y0042664D01*
X0007952Y0041066D02*
X0012661Y0041066D01*
X0016117Y0040441D02*
X0016117Y0040441D01*
X0017512Y0039467D02*
X0007952Y0039467D01*
X0007952Y0050657D02*
X0063752Y0050657D01*
X0063752Y0052255D02*
X0007952Y0052255D01*
X0007952Y0053854D02*
X0039873Y0053854D01*
X0039059Y0055452D02*
X0007952Y0055452D01*
X0045407Y0053854D02*
X0063983Y0053854D01*
X0065582Y0055452D02*
X0046221Y0055452D01*
X0087561Y0087423D02*
X0087561Y0087423D01*
X0087561Y0089021D02*
X0087561Y0089021D01*
X0087561Y0090620D02*
X0087561Y0090620D01*
X0087561Y0092218D02*
X0087561Y0092218D01*
X0087561Y0093817D02*
X0087561Y0093817D01*
X0087561Y0095415D02*
X0087561Y0095415D01*
X0105652Y0106800D02*
X0110652Y0111800D01*
X0108617Y0113159D02*
X0108617Y0113159D01*
X0110761Y0120991D02*
X0100737Y0120991D01*
X0102336Y0122590D02*
X0110979Y0122590D01*
X0111981Y0124188D02*
X0103934Y0124188D01*
X0105533Y0125787D02*
X0155752Y0125787D01*
X0155752Y0127385D02*
X0121857Y0127385D01*
X0123142Y0124188D02*
X0137071Y0124188D01*
X0140081Y0121229D02*
X0117561Y0121229D01*
X0113266Y0127385D02*
X0107131Y0127385D01*
X0108730Y0128984D02*
X0111345Y0128984D01*
X0110761Y0130582D02*
X0110245Y0130582D01*
X0110552Y0132181D02*
X0110810Y0132181D01*
X0110552Y0133779D02*
X0111572Y0133779D01*
X0110552Y0135378D02*
X0114002Y0135378D01*
X0110552Y0136976D02*
X0154571Y0136976D01*
X0154571Y0135378D02*
X0121120Y0135378D01*
X0123551Y0133779D02*
X0154948Y0133779D01*
X0158152Y0136800D02*
X0158152Y0099300D01*
X0155752Y0119393D02*
X0144233Y0119393D01*
X0144233Y0120991D02*
X0155752Y0120991D01*
X0155752Y0122590D02*
X0144233Y0122590D01*
X0144233Y0124188D02*
X0155752Y0124188D01*
X0154571Y0138575D02*
X0123447Y0138575D01*
X0117561Y0141229D02*
X0192246Y0141229D01*
X0195317Y0138158D01*
X0194051Y0143370D02*
X0193348Y0143370D01*
X0195202Y0144969D02*
X0137543Y0144969D01*
X0135652Y0144969D02*
X0135652Y0144969D01*
X0135652Y0144900D02*
X0135652Y0149085D01*
X0135652Y0149085D01*
X0135652Y0144900D01*
X0135652Y0146568D02*
X0135652Y0146568D01*
X0135652Y0148166D02*
X0135652Y0148166D01*
X0133760Y0144969D02*
X0122108Y0144969D01*
X0123321Y0148166D02*
X0131252Y0148166D01*
X0132162Y0146568D02*
X0110552Y0146568D01*
X0110552Y0148166D02*
X0111802Y0148166D01*
X0113015Y0144969D02*
X0110552Y0144969D01*
X0110552Y0143370D02*
X0111302Y0143370D01*
X0110761Y0141772D02*
X0110552Y0141772D01*
X0110552Y0140173D02*
X0110853Y0140173D01*
X0110552Y0138575D02*
X0111676Y0138575D01*
X0105752Y0138575D02*
X0105449Y0138575D01*
X0105552Y0140173D02*
X0105752Y0140173D01*
X0105752Y0141772D02*
X0105552Y0141772D01*
X0105552Y0143370D02*
X0105752Y0143370D01*
X0105752Y0144969D02*
X0105552Y0144969D01*
X0105552Y0146568D02*
X0105752Y0146568D01*
X0105752Y0148166D02*
X0105552Y0148166D01*
X0105552Y0149765D02*
X0105752Y0149765D01*
X0105552Y0151363D02*
X0106821Y0151363D01*
X0105552Y0152962D02*
X0108419Y0152962D01*
X0110337Y0151485D02*
X0108152Y0149300D01*
X0108152Y0131800D01*
X0098152Y0121800D01*
X0101942Y0128984D02*
X0093777Y0128984D01*
X0094361Y0130582D02*
X0103540Y0130582D01*
X0105139Y0132181D02*
X0094313Y0132181D01*
X0093551Y0133779D02*
X0105752Y0133779D01*
X0105752Y0135378D02*
X0102624Y0135378D01*
X0104223Y0136976D02*
X0105752Y0136976D01*
X0100631Y0140173D02*
X0094270Y0140173D01*
X0094361Y0141772D02*
X0100752Y0141772D01*
X0100752Y0143370D02*
X0093820Y0143370D01*
X0092108Y0144969D02*
X0100752Y0144969D01*
X0105552Y0154560D02*
X0112070Y0154560D01*
X0110337Y0151485D02*
X0194628Y0151485D01*
X0192651Y0146568D02*
X0154299Y0146568D01*
X0155898Y0148166D02*
X0190452Y0148166D01*
X0189996Y0164151D02*
X0153512Y0164151D01*
X0149721Y0164151D02*
X0123179Y0164151D01*
X0117561Y0155629D02*
X0117561Y0153885D01*
X0117561Y0155629D01*
X0117561Y0154560D02*
X0117561Y0154560D01*
X0117561Y0153885D02*
X0117561Y0153885D01*
X0117561Y0148166D02*
X0117561Y0148166D01*
X0103010Y0162553D02*
X0094159Y0162553D01*
X0094361Y0160954D02*
X0101412Y0160954D01*
X0100752Y0159356D02*
X0093931Y0159356D01*
X0082353Y0154560D02*
X0007952Y0154560D01*
X0007952Y0152962D02*
X0081133Y0152962D01*
X0080761Y0151363D02*
X0007952Y0151363D01*
X0007952Y0149765D02*
X0081022Y0149765D01*
X0081104Y0148166D02*
X0007952Y0148166D01*
X0007952Y0146568D02*
X0079506Y0146568D01*
X0077907Y0144969D02*
X0007952Y0144969D01*
X0010317Y0143370D02*
X0076309Y0143370D01*
X0076124Y0139792D02*
X0006400Y0139792D01*
X0010970Y0136976D02*
X0089915Y0136976D01*
X0117561Y0131229D02*
X0192246Y0131229D01*
X0195317Y0128158D01*
X0151617Y0146568D02*
X0151616Y0146568D01*
X0151616Y0148166D02*
X0151617Y0148166D01*
X0148934Y0146568D02*
X0139142Y0146568D01*
X0140052Y0148166D02*
X0147335Y0148166D01*
X0149625Y0156159D02*
X0138450Y0156159D01*
X0139852Y0157757D02*
X0148027Y0157757D01*
X0158186Y0185561D02*
X0159010Y0185294D01*
X0159865Y0185158D01*
X0160098Y0185158D01*
X0160098Y0190458D01*
X0160498Y0190458D01*
X0160498Y0190858D01*
X0160098Y0190858D01*
X0160098Y0190458D01*
X0154798Y0190458D01*
X0154798Y0190225D01*
X0154933Y0189370D01*
X0155201Y0188547D01*
X0155594Y0187776D01*
X0156102Y0187075D01*
X0156715Y0186463D01*
X0157415Y0185954D01*
X0158186Y0185561D01*
X0156647Y0186530D02*
X0148514Y0186530D01*
X0150113Y0188129D02*
X0155414Y0188129D01*
X0154877Y0189727D02*
X0150898Y0189727D01*
X0150898Y0191326D02*
X0154835Y0191326D01*
X0155279Y0192924D02*
X0150534Y0192924D01*
X0148935Y0194523D02*
X0156384Y0194523D01*
X0160098Y0194523D02*
X0160498Y0194523D01*
X0160498Y0192924D02*
X0160098Y0192924D01*
X0160098Y0191326D02*
X0160498Y0191326D01*
X0160498Y0190458D02*
X0165798Y0190458D01*
X0165798Y0190225D01*
X0165662Y0189370D01*
X0165395Y0188547D01*
X0165002Y0187776D01*
X0164493Y0187075D01*
X0163881Y0186463D01*
X0163180Y0185954D01*
X0162409Y0185561D01*
X0161586Y0185294D01*
X0160730Y0185158D01*
X0160498Y0185158D01*
X0160498Y0190458D01*
X0160498Y0189727D02*
X0160098Y0189727D01*
X0160098Y0188129D02*
X0160498Y0188129D01*
X0160498Y0186530D02*
X0160098Y0186530D01*
X0163948Y0186530D02*
X0176930Y0186530D01*
X0175609Y0188129D02*
X0165182Y0188129D01*
X0165719Y0189727D02*
X0174998Y0189727D01*
X0174998Y0191326D02*
X0165760Y0191326D01*
X0165316Y0192924D02*
X0175500Y0192924D01*
X0176667Y0194523D02*
X0164211Y0194523D01*
X0140652Y0121800D02*
X0140081Y0121229D01*
X0121928Y0065043D02*
X0167670Y0065043D01*
X0167578Y0058649D02*
X0123521Y0058649D01*
X0047837Y0184615D02*
X0033191Y0184615D01*
X0052251Y0188129D02*
X0059407Y0188129D01*
X0056883Y0189727D02*
X0054775Y0189727D01*
X0055758Y0191326D02*
X0055900Y0191326D01*
X0062251Y0188129D02*
X0069407Y0188129D01*
X0066883Y0189727D02*
X0064775Y0189727D01*
X0065758Y0191326D02*
X0065900Y0191326D01*
X0072251Y0188129D02*
X0079407Y0188129D01*
X0076883Y0189727D02*
X0074775Y0189727D01*
X0075758Y0191326D02*
X0075900Y0191326D01*
X0082251Y0188129D02*
X0089407Y0188129D01*
X0086883Y0189727D02*
X0084775Y0189727D01*
X0085758Y0191326D02*
X0085900Y0191326D01*
D19*
X0100652Y0176800D03*
X0105652Y0181800D03*
X0158152Y0136800D03*
X0140652Y0121800D03*
X0170652Y0061800D03*
X0175652Y0051800D03*
X0180652Y0041800D03*
X0045652Y0129300D03*
X0038152Y0096800D03*
X0043152Y0089300D03*
X0042640Y0057312D03*
X0033152Y0031800D03*
X0015652Y0044300D03*
M02*
